<svg width="24" height="25" viewBox="0 0 24 25" fill="none" xmlns="http://www.w3.org/2000/svg">
<g clip-path="url(#clip0_810_8885)">
<path d="M22.2234 0.330078H1.77187C0.792187 0.330078 0 1.10352 0 2.05977V22.5957C0 23.552 0.792187 24.3301 1.77187 24.3301H22.2234C23.2031 24.3301 24 23.552 24 22.6004V2.05977C24 1.10352 23.2031 0.330078 22.2234 0.330078ZM7.12031 20.7816H3.55781V9.32539H7.12031V20.7816ZM5.33906 7.76445C4.19531 7.76445 3.27188 6.84102 3.27188 5.70195C3.27188 4.56289 4.19531 3.63945 5.33906 3.63945C6.47813 3.63945 7.40156 4.56289 7.40156 5.70195C7.40156 6.83633 6.47813 7.76445 5.33906 7.76445ZM20.4516 20.7816H16.8937V15.2129C16.8937 13.8863 16.8703 12.1754 15.0422 12.1754C13.1906 12.1754 12.9094 13.6238 12.9094 15.1191V20.7816H9.35625V9.32539H12.7687V10.891H12.8156C13.2891 9.99102 14.4516 9.03945 16.1813 9.03945C19.7859 9.03945 20.4516 11.4113 20.4516 14.4957V20.7816Z" fill="#073042"/>
</g>
<defs>
<clipPath id="clip0_810_8885">
<rect width="24" height="24" fill="white" transform="translate(0 0.330078)"/>
</clipPath>
</defs>
</svg>
