<svg width="217" height="152" viewBox="0 0 217 152" fill="none" xmlns="http://www.w3.org/2000/svg">
<path d="M178.757 88.9384V90.8355L136.291 66.319V64.4219L178.757 88.9384Z" fill="#1A3C4A"/>
<path d="M136.288 64.4219V66.319L39.215 122.736L39.2441 120.81L136.288 64.4219Z" fill="#1A3C4A"/>
<path d="M81.71 145.356V147.253L39.215 122.737V120.81L81.71 145.356Z" fill="#B9DCEB"/>
<path d="M178.754 88.9384L81.71 145.356L39.215 120.81L136.288 64.4219L178.754 88.9384Z" fill="#B9DCEB"/>
<path d="M81.7079 145.705V147.603L38.6 122.736V120.839L81.7079 145.705Z" fill="#1A3C4A"/>
<path d="M136.286 64.0713L179.394 88.9672L81.7079 145.735L38.6 120.839L136.286 64.0713ZM81.7079 145.355L178.752 88.9672L136.286 64.4507L39.2421 120.839L81.7079 145.355Z" fill="#1A3C4A"/>
<path d="M178.758 88.938V90.8351L81.7138 147.252V145.355L178.758 88.938Z" fill="#B9DCEB"/>
<path d="M179.4 88.938V90.8351L81.7138 147.603V145.705L179.4 88.938Z" fill="#1A3C4A"/>
<path d="M159.766 80.9636V85.8669C159.766 87.91 158.803 89.953 156.877 91.7042C149.989 98.0085 135.425 98.7381 126.815 93.8056C123.751 92.0544 121.036 89.3693 121.036 85.8669V80.9636C121.036 84.466 123.751 87.1511 126.815 88.9023C135.425 93.8348 149.989 93.1343 156.877 86.8009C158.803 85.0497 159.766 83.0067 159.766 80.9636Z" fill="#1279A6"/>
<path d="M156.79 75.0091C160.731 78.5406 160.76 83.2396 156.878 86.8004C149.99 93.1046 135.426 93.8343 126.816 88.9018C119.928 84.9616 119.52 79.1535 123.927 75.0966C131.632 68.0335 148.998 68.0044 156.79 75.0091Z" fill="#F1FAF3"/>
<path d="M152.613 86.0133C147.039 90.4497 136.269 90.8291 129.819 87.1224C124.332 83.9995 124.098 79.1254 128.184 75.8857C134.255 71.0407 146.455 71.0699 152.526 75.8273C156.291 78.7459 156.407 82.978 152.613 86.0133Z" fill="#71AECF"/>
<path d="M159.766 73.9338V78.8371C159.766 80.8802 158.803 82.9232 156.877 84.6744C149.989 90.9787 135.425 91.7083 126.815 86.7758C123.751 85.0247 121.036 82.3395 121.036 78.8371V73.9338C121.036 77.4362 123.751 80.1213 126.815 81.8725C135.425 86.805 149.989 86.1045 156.877 79.7711C158.803 78.0199 159.766 75.9769 159.766 73.9338Z" fill="#1279A6"/>
<path d="M156.79 67.9791C160.731 71.5106 160.76 76.2096 156.878 79.7703C149.99 86.0746 135.426 86.8043 126.816 81.8718C119.928 77.9316 119.52 72.1235 123.927 68.0666C131.632 61.0035 148.998 60.9743 156.79 67.9791Z" fill="#F1FAF3"/>
<path d="M152.611 79.011C146.657 83.7392 134.545 83.9143 128.27 79.0694C124.476 76.1216 124.418 71.8604 128.183 68.8542C134.253 64.0092 146.453 64.0384 152.524 68.7958C156.289 71.7144 156.406 75.9465 152.611 79.011Z" fill="#71AECF"/>
<path d="M159.766 66.8374V71.7407C159.766 73.7838 158.803 75.8268 156.877 77.578C149.989 83.8822 135.425 84.6119 126.815 79.6794C123.751 77.9282 121.036 75.2431 121.036 71.7407V66.8374C121.036 70.3398 123.751 73.0249 126.815 74.7761C135.425 79.7086 149.989 79.0081 156.877 72.6747C158.803 70.9235 159.766 68.8804 159.766 66.8374Z" fill="#1279A6"/>
<path d="M156.79 60.8829C160.731 64.4144 160.76 69.1134 156.878 72.6742C149.99 78.9784 135.426 79.7081 126.816 74.7756C119.928 70.8354 119.52 65.0273 123.927 60.9704C131.632 53.9073 148.998 53.8781 156.79 60.8829Z" fill="#F1FAF3"/>
<path d="M152.613 71.9167C147.039 76.353 136.269 76.7324 129.819 73.0257C124.332 69.9028 124.098 65.0287 128.184 61.789C134.255 56.9441 146.455 56.9732 152.526 61.7306C156.291 64.6201 156.407 68.8521 152.613 71.9167Z" fill="#71AECF"/>
<path d="M159.766 59.572V64.4753C159.766 66.5184 158.803 68.5614 156.877 70.3126C149.989 76.6169 135.425 77.3465 126.815 72.414C123.751 70.6628 121.036 67.9777 121.036 64.4753V59.572C121.036 63.0744 123.751 65.7595 126.815 67.5107C135.425 72.4432 149.989 71.7427 156.877 65.4093C158.803 63.6581 159.766 61.6151 159.766 59.572Z" fill="#1279A6"/>
<path d="M156.79 53.6175C160.731 57.149 160.76 61.848 156.878 65.4088C149.99 71.713 135.426 72.4427 126.816 67.5102C119.928 63.57 119.52 57.7619 123.927 53.705C131.632 46.6419 148.998 46.6128 156.79 53.6175Z" fill="#F1FAF3"/>
<path d="M152.608 64.6491C147.034 69.0854 136.264 69.4648 129.814 65.7582C124.327 62.6352 124.093 57.7611 128.179 54.5214C134.25 49.6765 146.45 49.7057 152.521 54.463C156.286 57.3525 156.402 61.5845 152.608 64.6491Z" fill="#71AECF"/>
<path d="M159.766 52.1865V57.0898C159.766 59.1329 158.803 61.1759 156.877 62.9271C149.989 69.2314 135.425 69.961 126.815 65.0285C123.751 63.2773 121.036 60.5922 121.036 57.0898V52.1865C121.036 55.6889 123.751 58.374 126.815 60.1252C135.425 65.0577 149.989 64.3572 156.877 58.0238C158.803 56.2726 159.766 54.2296 159.766 52.1865Z" fill="#1279A6"/>
<path d="M156.79 46.2624C160.731 49.794 160.76 54.493 156.878 58.0537C149.99 64.358 135.426 65.0876 126.816 60.1551C119.928 56.215 119.52 50.4069 123.927 46.35C131.632 39.2577 148.998 39.2285 156.79 46.2624Z" fill="#F1FAF3"/>
<path d="M152.613 57.266C147.039 61.7024 136.269 62.0818 129.819 58.3751C124.332 55.2522 124.098 50.378 128.184 47.1384C134.255 42.2934 146.455 42.3226 152.526 47.08C156.291 49.9986 156.407 54.2307 152.613 57.266Z" fill="#71AECF"/>
<path d="M127.374 100.199V105.103C127.374 107.146 126.41 109.189 124.484 110.94C117.596 117.244 103.032 117.974 94.4225 113.041C91.3579 111.29 88.6436 108.605 88.6436 105.103V100.199C88.6436 103.702 91.3579 106.387 94.4225 108.138C103.032 113.07 117.596 112.37 124.484 106.036C126.41 104.285 127.374 102.242 127.374 100.199Z" fill="#1279A6"/>
<path d="M124.429 94.2447C128.369 97.7762 128.398 102.475 124.517 106.036C117.629 112.34 103.065 113.07 94.4549 108.137C87.567 104.197 87.1584 98.3891 91.5655 94.3322C99.2706 87.2691 116.607 87.24 124.429 94.2447Z" fill="#F1FAF3"/>
<path d="M120.253 105.277C114.679 109.714 103.909 110.093 97.4587 106.386C91.9718 103.263 91.7383 98.3893 95.8243 95.1496C101.895 90.3047 114.095 90.3338 120.166 95.0912C123.901 97.9807 124.047 102.213 120.253 105.277Z" fill="#71AECF"/>
<path d="M127.374 93.1638V98.0671C127.374 100.11 126.41 102.153 124.484 103.904C117.596 110.209 103.032 110.938 94.4225 106.006C91.3579 104.255 88.6436 101.569 88.6436 98.0671V93.1638C88.6436 96.6662 91.3579 99.3513 94.4225 101.103C103.032 106.035 117.596 105.335 124.484 99.0011C126.41 97.2499 127.374 95.2069 127.374 93.1638Z" fill="#1279A6"/>
<path d="M124.429 87.2093C128.369 90.7408 128.398 95.4398 124.517 99.0006C117.629 105.305 103.065 106.034 94.4549 101.102C87.567 97.1618 87.1584 91.3537 91.5655 87.2968C99.2706 80.2337 116.607 80.2046 124.429 87.2093Z" fill="#F1FAF3"/>
<path d="M120.25 98.2425C114.296 102.971 102.184 103.146 95.9086 98.3009C92.1144 95.353 92.056 91.0918 95.8211 88.0856C101.892 83.2407 114.092 83.2699 120.162 88.0273C123.898 90.9459 124.044 95.1779 120.25 98.2425Z" fill="#71AECF"/>
<path d="M127.374 86.072V90.9753C127.374 93.0184 126.41 95.0614 124.484 96.8126C117.596 103.117 103.032 103.847 94.4225 98.914C91.3579 97.1628 88.6436 94.4777 88.6436 90.9753V86.072C88.6436 89.5744 91.3579 92.2595 94.4225 94.0107C103.032 98.9432 117.596 98.2427 124.484 91.9093C126.41 90.1581 127.374 88.1151 127.374 86.072Z" fill="#1279A6"/>
<path d="M124.429 80.1175C128.369 83.649 128.398 88.348 124.517 91.9088C117.629 98.213 103.065 98.9427 94.4549 94.0102C87.567 90.07 87.1584 84.2619 91.5655 80.205C99.2706 73.1419 116.607 73.1128 124.429 80.1175Z" fill="#F1FAF3"/>
<path d="M120.253 91.1501C114.679 95.5864 103.909 95.9658 97.4587 92.2591C91.9718 89.1362 91.7383 84.2621 95.8243 81.0224C101.895 76.1775 114.095 76.2067 120.166 80.964C123.901 83.8535 124.047 88.1147 120.253 91.1501Z" fill="#71AECF"/>
<path d="M127.374 78.8054V83.7087C127.374 85.7518 126.41 87.7948 124.484 89.546C117.596 95.8503 103.032 96.5799 94.4225 91.6474C91.3579 89.8962 88.6436 87.2111 88.6436 83.7087V78.8054C88.6436 82.3078 91.3579 84.9929 94.4225 86.7441C103.032 91.6766 117.596 90.9761 124.484 84.6427C126.41 82.8915 127.374 80.8485 127.374 78.8054Z" fill="#1279A6"/>
<path d="M124.429 72.8813C128.369 76.4129 128.398 81.1119 124.517 84.6726C117.629 90.9769 103.065 91.7065 94.4549 86.774C87.567 82.8339 87.1584 77.0258 91.5655 72.9689C99.2706 65.8766 116.607 65.8474 124.429 72.8813Z" fill="#F1FAF3"/>
<path d="M120.253 83.8827C114.679 88.3191 103.909 88.6985 97.4587 84.9918C91.9718 81.8689 91.7383 76.9947 95.8243 73.7551C101.895 68.9101 114.095 68.9393 120.166 73.6967C123.901 76.5861 124.047 80.8474 120.253 83.8827Z" fill="#71AECF"/>
<path d="M96.9575 117.681V122.584C96.9575 124.627 95.9943 126.67 94.068 128.421C87.1801 134.725 72.6162 135.455 64.0063 130.523C60.9418 128.771 58.2275 126.086 58.2275 122.584V117.681C58.2275 121.183 60.9418 123.868 64.0063 125.619C72.6162 130.552 87.1801 129.851 94.068 123.518C95.9943 121.767 96.9575 119.724 96.9575 117.681Z" fill="#1279A6"/>
<path d="M93.9767 111.757C97.9168 115.288 97.946 119.987 94.0642 123.548C87.1763 129.852 72.6124 130.582 64.0025 125.649C57.1146 121.709 56.706 115.901 61.1131 111.844C68.8182 104.752 86.184 104.723 93.9767 111.757Z" fill="#F1FAF3"/>
<path d="M89.8107 122.76C84.2362 127.196 73.4665 127.575 67.0164 123.869C61.5294 120.746 61.2959 115.872 65.3819 112.632C71.4527 107.787 83.6524 107.816 89.7231 112.574C93.4882 115.492 93.6341 119.724 89.8107 122.76Z" fill="#71AECF"/>
<path d="M96.9575 110.645V115.548C96.9575 117.591 95.9943 119.634 94.068 121.386C87.1801 127.69 72.6162 128.42 64.0063 123.487C60.9418 121.736 58.2275 119.051 58.2275 115.548V110.645C58.2275 114.147 60.9418 116.833 64.0063 118.584C72.6162 123.516 87.1801 122.816 94.068 116.482C95.9943 114.731 96.9575 112.688 96.9575 110.645Z" fill="#1279A6"/>
<path d="M93.9767 104.721C97.9168 108.252 97.946 112.951 94.0642 116.512C87.1763 122.816 72.6124 123.546 64.0025 118.614C57.1146 114.673 56.706 108.865 61.1131 104.808C68.8182 97.7162 86.184 97.687 93.9767 104.721Z" fill="#F1FAF3"/>
<path d="M89.8037 115.724C83.8497 120.452 71.7375 120.627 65.4625 115.782C61.6683 112.834 61.6099 108.573 65.3749 105.567C71.4457 100.722 83.6454 100.751 89.7161 105.508C93.4811 108.427 93.6271 112.688 89.8037 115.724Z" fill="#71AECF"/>
<path d="M96.9575 103.553V108.457C96.9575 110.5 95.9943 112.543 94.068 114.294C87.1801 120.598 72.6162 121.328 64.0063 116.395C60.9418 114.644 58.2275 111.959 58.2275 108.457V103.553C58.2275 107.056 60.9418 109.741 64.0063 111.492C72.6162 116.425 87.1801 115.724 94.068 109.391C95.9943 107.64 96.9575 105.597 96.9575 103.553Z" fill="#1279A6"/>
<path d="M93.9767 97.6294C97.9168 101.161 97.946 105.86 94.0642 109.421C87.1763 115.725 72.6124 116.455 64.0025 111.522C57.1146 107.582 56.706 101.774 61.1131 97.7169C68.8182 90.6246 86.184 90.5955 93.9767 97.6294Z" fill="#F1FAF3"/>
<path d="M89.8107 108.634C84.2362 113.07 73.4665 113.45 67.0164 109.743C61.5294 106.62 61.2959 101.746 65.3819 98.5063C71.4527 93.6613 83.6524 93.6905 89.7231 98.4479C93.4882 101.367 93.6341 105.599 89.8107 108.634Z" fill="#71AECF"/>
<path d="M150.043 3.88477L151.59 5.54839L148.146 32.0204L146.57 30.3276L150.043 3.88477Z" fill="#1E4457"/>
<path d="M146.569 30.3288L148.145 32.0216L126.11 19.2963L124.534 17.6035L146.569 30.3288Z" fill="#1E4457"/>
<path d="M150.042 3.88477L146.569 30.3276L124.534 17.6024L150.042 3.88477Z" fill="#71AECF"/>
<path d="M124.121 55.3105L115.511 50.2904L131.593 21.6294L140.203 26.6494L124.121 55.3105Z" fill="#71AECF"/>
<path d="M94.8447 77.3459L86.2348 72.3551L103.601 43.1104L112.24 48.1304L94.8447 77.3459Z" fill="#71AECF"/>
<path d="M84.0424 73.0855L75.4325 68.0654L86.2314 72.3558L94.8413 77.3467L84.0424 73.0855Z" fill="#87C7E9"/>
<path d="M68.4336 99.2656L59.8237 94.2748L75.4383 68.0654L84.0482 73.0855L68.4336 99.2656Z" fill="#71AECF"/>
<path d="M69.9221 100.198L61.3122 95.2074L59.8237 94.2734L68.4336 99.2643L69.9221 100.198Z" fill="#1E4457"/>
<path d="M140.207 26.6497L141.754 27.5544L124.126 58.8714L112.189 51.6624L94.9689 80.6444L84.17 76.3832L69.9272 100.199L68.4387 99.2653L84.0533 73.0852L94.8522 77.3464L112.247 48.1308L124.126 55.3107L140.207 26.6497Z" fill="#1E4457"/>
</svg>
