<svg width="217" height="153" viewBox="0 0 217 153" fill="none" xmlns="http://www.w3.org/2000/svg">
<path d="M106.983 72.2614C103.683 76.1223 101.29 80.2352 99.7923 84.3708C98.8436 82.7593 97.8926 81.15 96.9438 79.5384C98.4418 75.4051 100.832 71.2899 104.134 67.4289C111.559 58.7446 122.006 53.1881 132.383 51.5107C133.321 53.0996 134.256 54.6862 135.193 56.2751C135.2 56.2864 135.207 56.3 135.214 56.3114C135.216 56.3159 135.218 56.3205 135.223 56.325C135.225 56.3318 135.232 56.3341 135.232 56.3432C124.857 58.0206 114.409 63.5793 106.983 72.2614Z" fill="#75CBF0"/>
<path d="M127.036 90.2133C127.134 90.6786 127.304 91.1212 127.542 91.5275L124.694 86.6951C124.455 86.2911 124.285 85.8484 124.188 85.3809C124.662 86.1866 125.136 86.9902 125.613 87.7959C125.724 87.9866 125.874 88.2386 125.985 88.4292C126.096 88.6199 126.242 88.865 126.351 89.0512C126.46 89.2373 126.598 89.4711 126.702 89.6504C126.802 89.8206 126.963 90.0317 127.036 90.2156V90.2133Z" fill="#75CBF0"/>
<path d="M96.7074 66.3281C87.5876 76.9939 83.4999 89.0557 84.2602 99.9395C83.3115 98.3279 82.3604 96.7186 81.4117 95.1071C80.6491 84.2233 84.7391 72.1615 93.8589 61.4957C112.108 40.1549 143.586 32.4897 164.173 44.3767C169.514 47.4592 173.597 51.5562 176.395 56.3046L179.244 61.137C176.445 56.3886 172.362 52.2916 167.021 49.2092C146.435 37.3222 114.954 44.9873 96.7074 66.3281Z" fill="#E9F7FC"/>
<path d="M135.228 56.3411C134.28 54.7296 133.329 53.1203 132.38 51.5087C140.476 50.199 148.529 51.2522 155.066 55.0269C158.933 57.2604 161.893 60.2271 163.92 63.6681L166.768 68.5005C164.739 65.0618 161.782 62.0929 157.914 59.8594C151.377 56.0847 143.327 55.0315 135.228 56.3411Z" fill="#75CBF0"/>
<path d="M118.358 78.83C112.695 85.4533 111.66 93.3659 115.01 99.0472L112.162 94.2148C108.811 88.5335 109.844 80.6209 115.509 73.9976C123.158 65.0522 136.352 61.8405 144.982 66.8227C147.22 68.1142 148.931 69.8325 150.105 71.8231L152.953 76.6555C151.78 74.6649 150.068 72.9489 147.83 71.6551C139.203 66.6729 126.009 69.8847 118.358 78.83Z" fill="#E9F7FC"/>
<path d="M99.791 84.3686C96.8495 92.4922 97.3579 100.691 101.196 107.201L98.3475 102.368C94.5116 95.8606 94.001 87.6598 96.9448 79.5361C97.8936 81.1477 98.8446 82.757 99.7933 84.3686H99.791Z" fill="#75CBF0"/>
<path d="M188.261 49.309L191.11 54.1414C187.517 48.0469 182.301 42.924 175.669 39.0948C163.108 31.8428 146.961 30.095 130.204 34.1739C113.449 38.2527 98.0895 47.6724 86.9542 60.6944C75.8212 73.7163 70.2444 88.7856 71.2522 103.122C71.7288 109.888 73.6445 116.11 76.8562 121.555L74.0077 116.722C70.796 111.277 68.8804 105.056 68.4037 98.2893C67.396 83.9531 72.9727 68.8838 84.1057 55.8619C95.241 42.8377 110.603 33.4203 127.355 29.3414C144.113 25.2603 160.26 27.0081 172.82 34.2624C179.455 38.0916 184.668 43.2145 188.261 49.309Z" fill="#1E7285"/>
<path d="M84.2595 99.9395C84.6272 105.183 86.1184 110.154 88.7173 114.562L85.8688 109.729C83.2699 105.321 81.7764 100.35 81.411 95.1071C81.8854 95.9128 82.3598 96.7164 82.8364 97.5221C82.8932 97.6175 82.968 97.7446 83.0225 97.8399C83.2064 98.1531 83.3902 98.4641 83.5741 98.7773C83.6807 98.9567 83.8215 99.1973 83.9259 99.3766C84.0258 99.5468 84.2005 99.7534 84.2595 99.9418V99.9395Z" fill="#E9F7FC"/>
<path d="M127.476 86.8177C126.954 87.9639 126.811 89.1511 127.036 90.2156C126.087 88.604 125.136 86.9947 124.187 85.3832C123.962 84.3186 124.105 83.1315 124.627 81.9853C126.661 77.5296 132.313 75.5935 135.774 77.5909C136.189 77.8315 136.575 78.1288 136.918 78.4852C137.154 78.7326 137.358 79.0005 137.529 79.2887L140.377 84.1212C140.207 83.8329 140.005 83.5651 139.767 83.3176C139.424 82.9613 139.04 82.6639 138.623 82.4233C135.161 80.4259 129.51 82.362 127.476 86.8177Z" fill="#75CBF0"/>
<path d="M78.8204 124.569C78.1191 123.593 77.4654 122.59 76.8548 121.557L74.0063 116.725C74.6146 117.757 75.2706 118.761 75.9719 119.737C76.9207 121.348 77.8717 122.958 78.8204 124.569Z" fill="#E9F7FC"/>
<path d="M193.431 58.731C192.483 57.1195 191.532 55.5102 190.583 53.8986C189.907 52.3143 189.13 50.7821 188.261 49.3068L191.11 54.1392C191.979 55.6146 192.755 57.1467 193.431 58.731Z" fill="#E9F7FC"/>
<path d="M78.822 124.569C78.797 124.531 78.7653 124.474 78.7426 124.433C77.8188 122.867 76.8973 121.303 75.9735 119.737C76.5727 120.57 77.206 121.382 77.871 122.172C78.729 123.625 79.5846 125.08 80.4426 126.533C80.4925 126.617 80.5425 126.703 80.5924 126.787C80.5992 126.796 80.606 126.81 80.6106 126.819C80.6219 126.837 80.6378 126.864 80.6491 126.882C80.6605 126.9 80.6741 126.925 80.6855 126.943C80.69 126.953 80.6968 126.964 80.7036 126.973C80.7104 126.982 80.7127 126.996 80.7195 127.002C80.0545 126.213 79.4212 125.4 78.822 124.567V124.569Z" fill="#E9F7FC"/>
<path d="M135.774 77.5909C136.189 77.8315 136.575 78.1288 136.918 78.4852C138.393 80.0219 138.564 82.4347 137.349 84.6273C135.109 88.6699 129.8 90.3518 126.493 88.4429C125.923 88.1138 125.413 87.6779 124.988 87.1309C123.926 85.76 123.79 83.8193 124.625 81.9853C126.659 77.5296 132.31 75.5935 135.772 77.5909H135.774Z" fill="#E9F7FC"/>
<path d="M137.525 79.2887L140.374 84.1211C141.259 85.6237 141.216 87.6212 140.197 89.462C137.956 93.5045 132.648 95.1865 129.341 93.2776C128.771 92.9484 128.26 92.5126 127.836 91.9656C127.727 91.8271 127.629 91.6819 127.541 91.5298L124.692 86.6974C124.781 86.8472 124.878 86.9924 124.987 87.1332C125.412 87.6825 125.922 88.116 126.492 88.4451C129.799 90.354 135.108 88.6721 137.348 84.6296C138.367 82.7887 138.41 80.7913 137.525 79.2887Z" fill="#E9F7FC"/>
<path d="M193.431 58.731C195.254 62.996 196.366 67.64 196.713 72.5746L193.865 67.7421C193.518 62.8076 192.405 58.1635 190.583 53.8986C191.532 55.5101 192.483 57.1194 193.431 58.731Z" fill="#E9F7FC"/>
<path d="M188.416 49.2205L191.264 54.0529C194.485 59.5141 196.405 65.7515 196.884 72.536L194.036 67.7035C193.559 60.9191 191.636 54.6816 188.416 49.2205Z" fill="#1E7285"/>
<path d="M150.103 71.821L152.951 76.6535C156.301 82.3348 155.268 90.2451 149.603 96.8707C141.954 105.816 128.76 109.028 120.131 104.046C117.893 102.754 116.181 101.038 115.008 99.0475L112.159 94.215C113.333 96.2057 115.044 97.9216 117.282 99.2131C125.909 104.195 139.106 100.981 146.755 92.0383C152.42 85.4127 153.453 77.5024 150.103 71.821Z" fill="#75CBF0"/>
<path d="M163.918 63.6678L166.767 68.5003C172.557 78.3195 170.773 91.9906 160.981 103.442C147.764 118.899 124.96 124.453 110.046 115.842C106.178 113.608 103.221 110.642 101.194 107.203L98.3455 102.37C100.372 105.809 103.33 108.776 107.197 111.009C122.11 119.619 144.914 114.067 158.132 98.6093C167.922 87.1604 169.708 73.4893 163.918 63.6678Z" fill="#E9F7FC"/>
<path d="M176.393 56.3024L179.242 61.1348C187.236 74.6924 184.771 93.5659 171.255 109.373C153.006 130.714 121.527 138.379 100.941 126.494C95.6 123.412 91.519 119.317 88.7205 114.568L85.8719 109.736C88.6705 114.484 92.7538 118.579 98.0922 121.662C118.679 133.549 150.16 125.883 168.406 104.54C181.92 88.7335 184.387 69.86 176.393 56.3024Z" fill="#75CBF0"/>
<path d="M193.864 67.7444C194.874 82.0806 189.297 97.1498 178.162 110.172C167.026 123.194 151.667 132.611 134.91 136.692C118.154 140.771 102.008 139.023 89.4447 131.771C76.884 124.519 69.4098 112.628 68.3975 98.2916C67.3897 83.9554 72.9664 68.8861 84.0994 55.8642C95.2347 42.84 110.596 33.4226 127.349 29.3437C144.107 25.2626 160.253 27.0104 172.814 34.2624C185.377 41.5145 192.851 53.406 193.859 67.7444H193.864ZM98.0923 121.659C118.679 133.546 150.16 125.881 168.406 104.538C186.655 83.1973 184.757 56.2614 164.171 44.3744C143.585 32.4874 112.103 40.1526 93.857 61.4934C75.6106 82.8341 77.5059 109.77 98.0923 121.657" fill="#E9F7FC"/>
<path d="M196.713 72.5769C197.723 86.9108 192.151 101.976 181.02 114.995C180.072 113.384 179.121 111.774 178.172 110.163C189.303 97.1408 194.875 82.0761 193.865 67.7445C194.721 69.1949 196.214 70.9699 196.713 72.5769Z" fill="#E9F7FC"/>
<path d="M132.342 142.646C132.169 142.351 131.994 142.058 131.822 141.763C131.404 141.053 130.984 140.344 130.567 139.634C130.519 139.552 130.453 139.443 130.406 139.359C130.249 139.091 130.09 138.826 129.933 138.558C129.845 138.406 129.725 138.204 129.636 138.052C129.593 137.979 129.495 137.895 129.495 137.811C131.291 137.505 133.1 137.133 134.913 136.69C136.7 136.254 138.472 135.759 140.222 135.206C141.039 136.59 141.856 137.977 142.673 139.362C142.744 139.482 142.816 139.604 142.887 139.725C142.896 139.738 142.907 139.757 142.914 139.772C142.93 139.8 142.953 139.836 142.969 139.865C142.993 139.909 143.021 139.954 143.046 139.997C143.053 140.008 143.071 140.024 143.071 140.038C141.318 140.592 139.548 141.089 137.762 141.522C135.948 141.965 134.139 142.337 132.344 142.644L132.342 142.646Z" fill="#E9F7FC"/>
<path d="M194.033 67.7036C195.045 82.0783 189.452 97.1885 178.287 110.247C167.123 123.305 151.723 132.747 134.92 136.84C118.119 140.93 101.929 139.178 89.3322 131.905C76.7352 124.633 69.2428 112.709 68.2305 98.3347C67.2205 83.9577 72.8108 68.8498 83.9756 55.7916C95.1404 42.7334 110.543 33.2887 127.343 29.1985C144.144 25.1083 160.334 26.8606 172.931 34.1331C185.528 41.4055 193.02 53.3289 194.033 67.7036ZM134.911 136.695C151.668 132.613 167.03 123.196 178.163 110.174C189.298 97.1499 194.875 82.0828 193.865 67.7467C192.857 53.4106 185.383 41.519 172.82 34.2647C160.259 27.0127 144.112 25.2649 127.355 29.3437C110.6 33.4226 95.2403 42.8423 84.105 55.8642C72.972 68.8862 67.3953 83.9554 68.403 98.2916C69.4131 112.628 76.8873 124.519 89.4479 131.771C102.009 139.023 118.158 140.771 134.913 136.692" fill="#1E7285"/>
<path d="M155.065 55.0267C169.977 63.6361 171.352 83.1474 158.133 98.6071C144.917 114.065 122.113 119.619 107.198 111.007C92.2863 102.398 90.9131 82.8864 104.13 67.4267C117.349 51.967 140.15 46.415 155.062 55.0244L155.065 55.0267ZM117.283 99.2131C125.91 104.195 139.106 100.981 146.755 92.0382C154.404 83.0929 153.608 71.8029 144.98 66.8229C136.353 61.8407 123.159 65.0524 115.508 73.9978C107.857 82.9431 108.656 94.2331 117.283 99.2154" fill="#E9F7FC"/>
<path d="M144.979 66.8229C153.606 71.8051 154.403 83.0929 146.754 92.0382C139.105 100.984 125.911 104.195 117.282 99.2131C108.652 94.2309 107.858 82.9408 115.507 73.9955C123.156 65.0502 136.35 61.8384 144.979 66.8206V66.8229ZM126.492 88.4451C129.799 90.354 135.108 88.6721 137.348 84.6296C138.563 82.4369 138.392 80.0241 136.917 78.4875C136.574 78.1311 136.191 77.8337 135.773 77.5931C132.312 75.5957 126.66 77.5319 124.626 81.9875C123.791 83.8215 123.927 85.7622 124.99 87.1332C125.414 87.6825 125.925 88.116 126.494 88.4451" fill="#75CBF0"/>
<path d="M80.7189 127.007C80.7076 126.991 80.6939 126.966 80.6849 126.948C80.6417 126.873 80.5963 126.798 80.5532 126.724C80.4624 126.569 80.3694 126.413 80.2786 126.258C79.4751 124.896 78.6739 123.537 77.8704 122.175C81.0185 125.913 84.8997 129.145 89.4483 131.772C92.2332 133.381 95.1952 134.718 98.3025 135.78C99.2512 137.392 100.202 139.001 101.151 140.612C98.046 139.548 95.084 138.211 92.2968 136.604C87.7482 133.978 83.867 130.743 80.7189 127.007Z" fill="#E9F7FC"/>
<path d="M101.149 140.612C101.133 140.599 101.124 140.569 101.112 140.549C100.175 138.96 99.2375 137.369 98.3001 135.78C107.683 138.992 118.38 139.702 129.493 137.811C130.442 139.423 131.393 141.032 132.341 142.644C121.229 144.534 110.532 143.824 101.149 140.612Z" fill="#E9F7FC"/>
<path d="M164.172 44.3768C184.759 56.2638 186.654 83.1997 168.407 104.54C150.159 125.881 118.68 133.546 98.0934 121.662C77.507 109.775 75.6095 82.841 93.8581 61.498C112.107 40.1572 143.586 32.492 164.172 44.3768ZM107.2 111.009C122.112 119.619 144.916 114.067 158.135 98.6094C171.354 83.1497 169.978 63.6384 155.066 55.029C140.154 46.4196 117.352 51.9693 104.133 67.4313C90.9165 82.8887 92.2897 102.402 107.202 111.012" fill="#75CBF0"/>
<path d="M177.624 118.724C176.675 117.113 175.724 115.504 174.775 113.892C175.944 112.687 177.074 111.447 178.166 110.172C178.168 110.17 178.171 110.165 178.173 110.163C179.122 111.774 180.073 113.384 181.021 114.995C181.019 114.997 181.017 115.002 181.015 115.004C179.925 116.28 178.793 117.519 177.624 118.724Z" fill="#E9F7FC"/>
<path d="M143.07 140.04C142.122 138.429 141.171 136.819 140.222 135.208C153.289 131.072 165.282 123.675 174.774 113.892C175.723 115.504 176.674 117.113 177.622 118.724C168.128 128.507 156.137 135.905 143.07 140.04Z" fill="#E9F7FC"/>
<path d="M76.6986 121.648L73.8501 116.816C77.4521 122.926 82.6816 128.062 89.3342 131.903C101.931 139.175 118.121 140.928 134.922 136.838C151.724 132.745 167.125 123.303 178.289 110.244C189.454 97.1862 195.047 82.0783 194.035 67.7013L196.883 72.5337C197.895 86.9084 192.303 102.019 181.138 115.077C169.973 128.135 154.573 137.577 137.77 141.67C120.97 145.76 104.78 144.008 92.1826 136.735C85.5301 132.895 80.3029 127.758 76.6986 121.648Z" fill="#1E7285"/>
<path d="M38.1735 22.0349L38.3846 22.1779L67.2033 41.9684L129.083 84.4593L134.24 81.6016L72.3601 39.1084L43.5414 19.3202L43.3326 19.1749L38.1735 22.0349Z" fill="#1E7285"/>
<path d="M21 24.6451L48.7066 43.6707L67.2026 41.9684L38.3839 22.1779L21 24.6451Z" fill="#5BB1E1"/>
<path d="M49.3695 8.91992L43.5408 19.3202L72.3595 39.1084L77.076 27.9455L49.3695 8.91992Z" fill="#75CBF0"/>
</svg>
