<svg width="37" height="48" viewBox="0 0 37 48" fill="none" xmlns="http://www.w3.org/2000/svg">
<g clip-path="url(#clip0_1683_13083)">
<path d="M13.9912 19.0271C14.725 19.582 17.4994 19.9042 18.5197 19.8684C18.7703 19.8505 18.9314 19.761 19.0209 19.6178C19.1283 19.761 19.2894 19.8505 19.5399 19.8684C20.5602 19.9042 23.3167 19.582 24.0505 19.0271C24.8023 18.4902 24.1758 17.4162 24.3011 16.8613C24.4264 16.3064 25.93 14.4628 27.2903 14.3912C28.6328 14.3375 31.067 15.322 31.7293 17.5594C32.4095 19.7968 32.2305 22.1058 30.5122 23.0545C28.7938 24.0031 27.165 23.484 26.8607 23.0545C26.5385 22.6249 25.2498 22.6607 24.7665 23.305C24.2653 23.9494 22.547 25.095 22.547 25.7572C22.547 25.7931 22.547 25.8288 22.547 25.8647C22.189 25.7036 21.7773 25.632 21.5626 26.0973C21.1688 26.9923 20.417 29.5519 20.6139 30.429C20.8108 31.2881 22.0816 31.0196 22.368 31.4671C24.2117 34.4742 22.3322 36.8906 20.417 37.5885C20.3812 37.1233 20.2022 33.3644 20.238 32.6843C20.2559 31.9504 20.417 26.2405 20.417 26.1689C20.417 26.0615 20.4528 25.9721 20.5244 25.8826C21.9206 24.2716 22.8155 23.2156 22.8871 23.144C22.9408 23.1081 23.2451 23.0366 23.442 22.9829C23.6389 22.9291 23.8358 22.8755 23.9611 22.8218C24.1758 22.7502 24.8023 22.2848 26.2343 21.1929C26.8965 20.7097 27.5767 20.1906 27.7557 20.0832C28.239 19.7968 30.2616 18.6871 30.4406 18.6333L30.369 18.3827L30.3153 18.1501C30.1184 18.2037 27.7915 19.4746 27.5051 19.6536C27.3082 19.7789 26.6638 20.2622 25.9479 20.8171C25.1603 21.4077 23.9789 22.2848 23.7999 22.3743C23.6747 22.4101 23.4957 22.4638 23.3167 22.4996C22.905 22.607 22.6544 22.6786 22.547 22.786C22.4396 22.8934 21.1867 24.3611 20.1485 25.5603C20.0053 25.7393 19.9337 25.9362 19.9337 26.1689C19.9337 26.2226 19.7726 31.9504 19.7369 32.6663C19.701 33.4002 19.9158 37.4811 19.9158 37.6602L20.238 37.6423C19.8442 37.7675 19.4325 37.8214 19.0745 37.7675C18.7404 37.7319 18.4123 37.6721 18.0901 37.5885H18.108C18.108 35.8166 18.1438 31.1091 18.2333 30.5901C18.3407 30.0352 18.287 27.404 18.2512 26.2942C18.2512 26.1152 18.1796 25.9362 18.0722 25.7752C16.7477 23.9315 15.9243 22.9291 15.6021 22.8218C15.4947 22.786 15.3873 22.7502 15.2799 22.7144C14.904 22.607 14.4924 22.4817 13.9017 22.1595C13.5795 21.9984 12.5593 21.3003 11.4674 20.5664C9.33738 19.1166 8.01281 18.2217 7.69064 18.1501L7.58323 18.6333C7.86963 18.705 9.87434 20.0653 11.1989 20.9782C12.3444 21.7478 13.3289 22.4101 13.669 22.607C14.2955 22.9471 14.7608 23.0903 15.1367 23.1976C15.2441 23.2215 15.3456 23.2514 15.441 23.2871C15.62 23.3766 16.4076 24.2716 17.6784 26.0615C17.7262 26.1331 17.75 26.2167 17.75 26.3121C17.8037 28.0663 17.8216 30.0889 17.75 30.5185C17.6426 31.127 17.6247 36.5147 17.6247 37.4633C16.157 36.9801 15.0472 36.0314 14.904 34.5995C14.725 32.7201 15.7632 31.4671 16.2286 31.3597C16.7118 31.2523 17.1414 30.1067 16.7834 29.4266C16.4076 28.7464 16.0854 26.7954 15.5126 26.5269C15.4887 26.515 15.4589 26.5031 15.4231 26.4911C15.4947 26.2584 15.4947 26.0078 15.4947 25.7572C15.4947 25.095 13.7764 23.9494 13.2931 23.305C12.7919 22.6607 11.5032 22.6249 11.1989 23.0545C10.8946 23.484 9.26576 24.0031 7.54745 23.0545C5.82911 22.1058 5.63225 19.7968 6.31238 17.5594C6.99256 15.322 9.40898 14.3375 10.7693 14.3912C12.1118 14.4628 13.6332 16.3064 13.7406 16.8613C13.8659 17.4162 13.2573 18.4902 13.9912 19.0271Z" fill="#FEFEFE"/>
<path fill-rule="evenodd" clip-rule="evenodd" d="M31.5146 27.8155C33.1793 27.3143 32.7854 25.4528 32.6064 24.8442L31.0671 26.4194C31.264 26.4552 31.4072 26.5089 31.443 26.5625C31.5146 26.6699 31.5325 27.1711 31.5146 27.8155Z" fill="#00A550"/>
<path fill-rule="evenodd" clip-rule="evenodd" d="M33.036 29.874C33.752 28.6389 33.9489 26.9385 33.9668 23.8599L33.5372 24.0746C33.6267 25.2918 33.5193 26.2404 33.1613 27.386C32.9286 28.1199 32.0694 28.5674 31.4609 28.8C31.3714 29.8561 31.2282 30.9837 31.0134 31.4849C30.5838 32.4515 32.3022 31.1627 33.036 29.874Z" fill="#00A550"/>
<path fill-rule="evenodd" clip-rule="evenodd" d="M36.1147 21.515C36.0431 20.6559 35.5956 19.4924 35.3092 20.4411C35.1302 21.0139 34.8617 22.0699 34.6827 23.484C34.5753 24.4684 34.4859 25.614 34.5216 26.9027C34.5754 30.0709 33.9846 30.6616 32.1053 32.2367C30.2079 33.8119 29.7246 34.2414 29.7246 34.2414C29.7246 34.2414 30.8881 29.6055 30.7628 28.4779C30.7091 27.8872 30.5301 27.4218 30.2795 27.207C30.0468 27.028 29.7604 27.0459 29.3846 27.4039C28.6149 28.1557 28.0242 32.9527 27.3261 34.2951C26.646 35.6555 25.9658 37.0874 25.9658 37.0874C25.9658 37.0874 24.6055 40.0947 25.9658 40.8819C27.3261 41.6695 27.5946 41.7412 30.4406 38.4121C33.2866 35.1006 35.9357 33.0064 36.1147 30.1246C36.2937 27.2428 36.1684 22.3921 36.1147 21.515Z" fill="#00A550"/>
<path fill-rule="evenodd" clip-rule="evenodd" d="M6.34818 27.8155C6.33031 27.1711 6.34818 26.6699 6.41981 26.5625C6.45558 26.5089 6.59877 26.4552 6.79567 26.4194L5.25633 24.8442C5.07733 25.4528 4.68356 27.3143 6.34818 27.8155Z" fill="#FEFEFE"/>
<path fill-rule="evenodd" clip-rule="evenodd" d="M6.84936 31.4848C6.63459 30.9836 6.49137 29.856 6.40191 28.7999C5.79333 28.5672 4.93416 28.1197 4.70147 27.3859C4.34348 26.2403 4.23608 25.2917 4.32558 24.0745L3.896 23.2153C3.9139 26.3119 4.11079 28.6388 4.82675 29.8738C5.56064 31.1626 7.27895 32.4514 6.84936 31.4848Z" fill="#FEFEFE"/>
<path fill-rule="evenodd" clip-rule="evenodd" d="M11.897 40.8819C13.2573 40.0947 11.897 37.0874 11.897 37.0874C11.897 37.0874 11.2168 35.6555 10.5366 34.2951C9.83855 32.9527 9.24788 28.1557 8.47821 27.4039C8.10234 27.0459 7.81594 27.028 7.58326 27.207C7.33267 27.4218 7.15367 27.8872 7.09995 28.4779C6.97468 29.6055 8.13812 34.2414 8.13812 34.2414C8.13812 34.2414 7.65485 33.8119 5.75751 32.2367C3.8781 30.6616 3.28743 30.0709 3.34112 26.9027C3.37692 25.614 3.28743 24.4684 3.18003 23.484C3.00104 22.0699 2.73255 21.0139 2.55356 20.4411C2.26717 19.4924 1.81969 20.6559 1.74809 21.515C1.69439 22.3921 1.5691 27.2428 1.74809 30.1246C1.92708 33.0064 4.57617 35.1006 7.42217 38.4121C10.2681 41.7412 10.5366 41.6695 11.897 40.8819Z" fill="#00A550"/>
<path fill-rule="evenodd" clip-rule="evenodd" d="M9.85649 10.4529C9.85649 10.4529 10.0713 10.3992 10.304 10.1308C10.5546 9.86226 12.3803 6.71202 12.7025 6.04971C13.0246 5.36954 13.4184 5.49485 13.4184 5.49485L13.5079 5.78126C13.5795 6.72989 12.5235 8.19764 11.9865 8.69882C11.4495 9.2179 11.9865 9.61167 11.9865 9.61167C11.9865 9.61167 12.255 9.46849 12.953 8.55563C13.6511 7.66065 13.8838 6.04971 13.8838 6.04971L14.1523 5.70963H14.564C14.5879 5.75737 14.6177 5.82301 14.6535 5.90653C14.922 6.4793 14.2418 7.83965 13.8659 8.46614C13.5079 9.07472 13.8659 9.09259 13.8659 9.09259C15.2262 8.12605 15.1547 5.56644 15.0473 5.31586C14.922 5.08318 14.385 5.22636 14.1344 5.11895C13.8838 5.01158 14.1344 4.52828 14.1344 4.52828C14.1344 4.52828 15.1547 4.25982 15.1189 4.403C15.0831 4.54618 15.28 4.85049 15.6737 5.02945C16.0496 5.22636 16.7119 5.06527 16.7119 5.06527L16.7835 5.42326L16.9804 5.56644C17.0341 8.12605 17.8217 8.34082 18.6271 9.09259C19.4147 9.84435 20.3991 10.0055 20.3991 10.0055C20.1127 10.7572 20.4528 11.9923 20.4528 11.9923C20.4528 11.9923 20.954 12.225 21.3657 11.8491C21.7774 11.4911 21.5984 10.0055 21.5984 9.93385C21.5984 9.84435 21.2583 10.4708 21.2583 10.4708C21.2583 10.4708 21.2583 10.4708 21.0435 9.93385C20.8108 9.3969 20.596 8.51982 20.596 8.51982C20.596 8.51982 20.3455 7.87546 20.8287 8.37664C21.3299 8.85991 21.3657 8.89572 21.5089 8.5735C21.6521 8.26923 21.3836 7.30269 21.3836 7.30269C21.3836 7.30269 21.3657 7.19529 21.5268 7.24897C21.6879 7.30269 22.0638 7.62487 22.0638 7.62487C22.0638 7.62487 22.1533 7.14156 22.2965 7.23106C22.4397 7.30269 22.4576 7.48165 22.6187 7.92914C22.7797 8.37664 23.0661 8.14396 23.0661 8.14396C23.0661 8.14396 23.0124 7.83965 23.084 7.33847C23.1735 6.81939 23.5136 7.21319 23.5136 7.21319C23.621 8.26923 24.516 9.2179 24.516 9.2179C24.9276 8.53773 23.9074 6.49721 23.9074 6.49721C23.9074 6.49721 23.6568 6.3898 23.1019 6.3898C22.5471 6.3898 21.3836 6.5867 21.3836 6.5867C21.3836 6.5867 21.0614 6.55089 20.5245 5.90653C19.9875 5.24427 20.238 4.93996 20.238 4.93996C20.238 4.93996 20.4707 4.92209 20.6855 4.97577C20.9182 5.02945 21.2404 5.69176 21.6879 5.97812C22.1533 6.26452 22.7439 5.83494 23.1556 5.38745C23.5494 4.93996 23.5494 3.88392 23.5494 3.88392C23.5255 3.49014 23.5017 3.09038 23.4778 2.68467C23.4599 2.43408 23.6747 2.20139 23.9253 2.20139C24.1938 2.20139 24.4802 2.20139 24.8024 2.25509C25.8047 2.43408 26.5028 2.86366 26.8966 3.15005C26.7355 2.89946 25.4109 1.59281 24.0148 1.03794C23.4957 0.841045 23.084 1.16323 22.8334 1.48542C22.6544 1.70021 22.5828 1.9866 22.6366 2.27299C22.8692 3.40064 22.7797 4.2956 22.5471 4.63568C22.3143 4.99368 21.3657 4.86836 21.3657 4.86836C20.7571 4.42091 20.5065 2.41618 20.5065 1.64651C20.5065 0.858945 20.0411 0.250371 18.9851 0.28617C17.9469 0.321968 17.6069 1.10954 17.6069 1.10954C17.6069 1.10954 18.0006 1.27063 18.5018 1.9329C18.9851 2.57727 18.6987 4.63568 18.6987 4.63568L18.466 4.54618C18.466 4.54618 18.287 4.86836 17.6069 4.86836C16.9088 4.86836 15.9959 4.13451 15.9959 3.02476C15.9959 1.9329 15.7274 1.10954 15.6737 1.10954C14.4924 0.912644 13.5258 2.16559 12.792 2.39828C12.0402 2.61307 11.9686 3.02476 11.9686 3.02476C12.9173 3.25744 13.5795 2.61307 14.3134 2.12979C15.0652 1.64651 15.1368 1.9508 15.1368 1.9508C15.2621 2.80996 14.9399 3.31114 14.9399 3.31114C14.3492 3.22164 14.5103 2.80996 14.5103 2.80996C14.5103 2.80996 13.9912 2.88156 13.3469 3.45434C12.6846 4.0271 11.718 4.08082 11.718 4.08082C11.7359 4.70727 12.434 4.52828 12.434 4.52828L12.2371 4.93996C11.8254 4.85049 11.6822 5.15477 11.6822 5.15477C11.8433 5.56644 12.434 5.42326 12.434 5.42326L12.3803 5.67385C11.7001 6.08553 10.2682 8.9494 9.85649 9.64748C9.44481 10.3456 9.85649 10.4529 9.85649 10.4529Z" fill="#00A550"/>
<path fill-rule="evenodd" clip-rule="evenodd" d="M16.1212 7.78639C16.3002 8.25175 16.5329 8.14438 16.5329 8.14438C16.5329 8.14438 16.7298 7.19571 16.5329 6.56922C16.336 5.96064 16.2644 5.87114 16.2644 5.87114C16.2644 5.87114 15.8348 5.69218 15.6558 6.08595C15.4768 6.47972 14.9936 7.96538 15.0473 8.28756C15.0831 8.62765 15.0831 8.62765 15.0831 8.62765C15.0831 8.62765 15.7453 8.43074 15.8348 7.23149C15.9243 6.01436 16.1212 6.8019 16.1212 6.8019C16.1212 6.8019 15.9781 7.42839 16.1212 7.78639Z" fill="#00A550"/>
<path fill-rule="evenodd" clip-rule="evenodd" d="M24.7844 5.4415C25.1066 5.2446 25.3214 5.58469 25.3214 5.58469C25.4467 5.36987 25.1603 5.02979 25.1603 5.02979C25.1603 5.02979 25.3751 4.79711 25.751 5.11929C26.1269 5.4415 26.4133 5.4236 26.4133 5.4236C26.1985 5.2446 26.0195 4.36752 26.0195 4.36752C26.2343 4.30786 26.4491 4.24225 26.6639 4.17066C26.1985 3.32938 25.6973 3.02509 25.3035 2.93559C24.8202 2.7924 23.9969 2.8282 23.9969 2.8282C23.979 2.98929 23.9611 3.25778 23.979 3.56207C23.9969 3.93794 24.0685 4.15275 24.1043 4.38543C24.1759 4.6897 24.2117 5.1551 24.1043 5.72787C24.1043 5.72787 24.4622 5.65628 24.7844 5.4415Z" fill="#00A550"/>
<path fill-rule="evenodd" clip-rule="evenodd" d="M26.2343 9.79105C26.2343 9.79105 26.6102 9.64786 26.0911 8.77079C25.5899 7.87584 25.3572 7.37466 25.2498 6.7124C25.1424 6.068 24.5696 6.30068 24.5696 6.30068C24.5696 6.30068 24.7486 8.82451 26.2343 9.79105Z" fill="#00A550"/>
<path fill-rule="evenodd" clip-rule="evenodd" d="M26.091 6.354C26.091 6.354 25.9836 8.3408 27.2187 9.34316C28.4716 10.3455 28.5791 10.4529 28.5791 10.4529C28.5791 10.4529 28.5432 9.93383 27.7915 8.7167C27.0576 7.51745 26.6459 6.6225 26.091 6.354Z" fill="#00A550"/>
<path fill-rule="evenodd" clip-rule="evenodd" d="M19.182 11.9029C19.4147 11.8492 19.4147 10.3635 19.4147 10.3635C19.4147 10.3635 18.9493 10.4172 18.645 10.0592C18.3407 9.68334 17.9469 9.66547 17.8574 9.93393C17.7858 10.2024 16.9625 11.6881 18.1259 12.3683C18.1259 12.3683 18.5376 12.0819 18.9135 12.3683C18.9135 12.3683 18.9314 11.9387 19.182 11.9029Z" fill="#00A550"/>
<path fill-rule="evenodd" clip-rule="evenodd" d="M22.6008 11.1692C22.4397 11.5451 22.7619 11.9567 22.7619 11.9567H23.1557C23.1557 11.9567 23.1557 11.6525 23.5136 11.7062C23.8895 11.7778 24.2117 11.6346 24.2117 11.6346C24.2117 11.6346 24.1043 11.5988 23.8179 11.2587C23.5315 10.9365 23.1019 10.8112 23.1557 10.8828C23.3704 11.1871 23.2094 11.4198 23.2094 11.4198L22.6008 11.1692Z" fill="#00A550"/>
<path fill-rule="evenodd" clip-rule="evenodd" d="M21.2225 14.7667C21.2404 14.7667 21.2225 14.7488 21.2046 14.731C21.2046 14.7548 21.2106 14.7667 21.2225 14.7667Z" fill="#00A550"/>
<path fill-rule="evenodd" clip-rule="evenodd" d="M20.596 12.9234C20.596 12.9234 20.4528 12.816 20.417 13.5141C20.3991 14.2122 20.1843 14.5165 20.1843 14.5165C20.1843 14.5165 20.3991 14.6418 20.7392 14.6418C20.954 14.6418 21.133 14.6955 21.2046 14.7313C21.1867 14.6418 21.2046 14.409 21.0972 13.89C20.954 13.174 20.596 12.9234 20.596 12.9234Z" fill="#00A550"/>
<path fill-rule="evenodd" clip-rule="evenodd" d="M19.182 14.1047C19.182 14.1047 19.6116 14.1584 19.7727 13.8362C19.9337 13.5319 19.7727 12.9233 19.7727 12.9233C19.7727 12.9233 19.5937 13.0486 19.182 13.1739C18.7703 13.2992 18.9851 14.1047 18.9851 14.1047H19.182Z" fill="#00A550"/>
<path fill-rule="evenodd" clip-rule="evenodd" d="M17.929 13.8363C17.7142 14.3375 17.5173 14.4986 17.5173 14.4986C17.5173 14.4986 17.929 14.7671 18.287 14.4986C18.6629 14.2301 18.466 13.9795 18.466 13.9795V13.353C18.4123 13.353 18.1259 13.353 17.929 13.8363Z" fill="#00A550"/>
<path fill-rule="evenodd" clip-rule="evenodd" d="M6.38402 43.6384C6.38402 43.6384 8.08446 42.5109 9.49849 42.0275C9.05099 41.419 8.13814 41.0073 7.10001 41.0073C5.57857 41.0073 4.34351 41.8663 4.34351 42.9225C4.34351 43.4237 5.13108 44.2826 6.38402 43.6384Z" fill="#00A550"/>
<path fill-rule="evenodd" clip-rule="evenodd" d="M31.5504 44.2826C29.4025 43.012 25.9479 41.4725 20.8825 41.2221C20.8825 41.234 20.8825 41.2459 20.8825 41.2577C20.3335 41.2221 19.7727 41.1983 19.1999 41.186C19.1403 41.186 19.0806 41.186 19.0209 41.186C18.9613 41.186 18.9016 41.186 18.8419 41.186C18.2692 41.1983 17.7083 41.2221 17.1594 41.2577C17.1594 41.2459 17.1594 41.234 17.1594 41.2221C12.0939 41.4725 8.63938 43.012 6.49145 44.2826C5.5786 44.8198 5.1311 44.4439 5.1311 44.4439L7.13585 46.8781C7.61912 47.3614 8.40669 47.4331 8.96156 47.0393C11.2884 45.3924 14.8146 44.3543 18.7524 44.3543C18.836 44.3543 18.9255 44.3603 19.0209 44.3722C19.1164 44.3603 19.2059 44.3543 19.2894 44.3543C23.2273 44.3543 26.7534 45.3924 29.0803 47.0393C29.6352 47.4331 30.4228 47.3614 30.906 46.8781L32.9107 44.4439C32.9107 44.4439 32.4633 44.8198 31.5504 44.2826Z" fill="#00A550"/>
<path fill-rule="evenodd" clip-rule="evenodd" d="M30.9418 41.0073C29.9036 41.0073 28.9908 41.419 28.5433 42.0275C29.9573 42.5109 31.6577 43.6384 31.6577 43.6384C32.9107 44.2826 33.6983 43.4237 33.6983 42.9225C33.6983 41.8663 32.4632 41.0073 30.9418 41.0073Z" fill="#00A550"/>
<path fill-rule="evenodd" clip-rule="evenodd" d="M20.1306 37.9643L17.929 37.66L18.0185 26.1867C17.1952 24.8442 15.7096 22.75 14.1165 22.4457C12.7025 22.1772 8.53196 18.8301 8.01288 18.4542L9.19423 16.8433C11.0915 18.2573 12.1834 19.5818 15.3516 20.8348C16.3539 21.2107 17.9469 22.7321 18.9672 23.6808C20.4707 22.4457 20.9182 21.676 21.849 21.497C22.5113 21.2644 26.5565 18.9017 29.2414 17.0401L30.3511 18.4721C27.5051 19.5997 23.9611 22.4278 22.8872 23.0364C22.4755 23.2154 21.2762 24.7726 20.1844 26.0435L20.1306 37.9643Z" fill="#00ADEE"/>
<path fill-rule="evenodd" clip-rule="evenodd" d="M31.1387 26.9026C31.1387 26.9026 31.801 26.9384 32.1768 25.7929C32.5527 24.6652 30.7807 26.3477 30.7807 26.3477L31.1387 26.9026Z" fill="#231F20"/>
<path fill-rule="evenodd" clip-rule="evenodd" d="M36.24 19.3133C35.9536 19.009 35.6314 18.9911 35.3092 19.2238C35.2973 18.9016 35.2734 18.5854 35.2376 18.2751C34.9691 16.1809 33.5372 13.3349 31.0134 12.1357C31.0014 12.1118 30.9895 12.088 30.9776 12.0641C30.9298 12.0283 30.8941 11.9865 30.8702 11.9388C30.8583 11.9149 30.8463 11.897 30.8344 11.8851C30.8225 11.8851 30.8165 11.8791 30.8165 11.8672C30.7807 11.8195 30.7389 11.7777 30.6912 11.7419C30.6554 11.7061 30.6196 11.6763 30.5838 11.6524C30.6912 11.6763 30.8046 11.7001 30.9239 11.724C30.2079 11.0617 29.4025 10.2205 28.6149 9.1823C28.0063 8.37685 27.5051 7.58928 27.0935 6.87332C27.4694 7.0881 28.5791 7.0881 28.5791 7.0881C27.9168 6.58692 27.6304 5.31607 27.6304 5.31607C28.0779 5.53089 28.5791 5.40557 28.5791 5.40557C28.1316 4.9223 27.881 4.00945 27.881 4.00945C28.3643 4.06313 28.3643 3.81254 28.3643 3.81254C28.0421 3.59775 25.6615 1.46774 24.2833 0.769668C23.3883 0.340086 22.7797 0.930762 22.4576 1.41404C22.2606 1.70043 22.207 2.05841 22.3144 2.3806C22.5291 3.04287 22.8334 4.29581 22.028 4.51063C20.9182 4.79699 20.7571 2.82808 20.7929 1.75412C20.8287 0.698069 20.1843 0 18.9851 0C17.8037 0 16.9446 1.43194 16.9446 1.43194C16.9446 1.43194 17.7679 1.55724 18.0006 1.71833C18.2512 1.87942 18.824 3.18607 18.2154 4.00945C17.6068 4.8328 16.8551 4.06313 16.5329 3.68724C16.2107 3.31136 16.4971 1.14555 16.0854 0.698069C15.6737 0.250589 13.2573 1.30664 12.1476 2.25531C11.0378 3.18607 9.7312 3.36506 9.7312 3.36506C9.7312 3.88414 10.4292 3.84832 10.4292 3.84832C10.2682 4.42113 9.76698 5.08339 9.76698 5.08339L10.4292 5.28026C10.4651 6.01415 9.8207 6.58692 9.8207 6.58692H10.5546C10.4114 7.1955 10.1787 7.87568 9.85647 8.59163C9.21212 10.0057 8.38876 11.0259 7.72646 11.724C7.8816 11.724 8.03077 11.724 8.17395 11.724C4.9163 12.5295 3.12636 15.8945 2.80418 18.2751C2.76838 18.6451 2.75048 19.015 2.75048 19.3849C2.37459 19.009 1.96291 18.9553 1.62283 19.3133C0.763662 20.2262 0.530972 30.6614 1.62283 32.2365C2.58939 33.6148 6.45561 38.6801 8.08445 40.3806C7.7742 40.3092 7.44603 40.2732 7.1 40.2732C5.16689 40.2732 3.60964 41.4724 3.60964 42.9225C3.60964 42.9938 3.61561 43.0596 3.62754 43.1194C3.66334 43.4771 3.77074 43.7996 3.96763 44.0857C4.05116 44.2291 4.15259 44.3602 4.27192 44.4795L6.50933 47.3079C7.29687 48.0773 8.53194 48.1846 9.4448 47.5583C11.3958 46.216 14.2597 45.321 17.5173 45.1241C17.5173 45.136 17.5173 45.1538 17.5173 45.1776C18.0066 45.13 18.5078 45.1063 19.0209 45.1063C19.534 45.1063 20.0352 45.13 20.5244 45.1776C20.5244 45.1538 20.5244 45.136 20.5244 45.1241C23.7821 45.321 26.646 46.216 28.597 47.5583C29.5098 48.1846 30.7449 48.0773 31.5324 47.3079L33.7699 44.4795C33.8773 44.3602 33.9787 44.2291 34.0741 44.0857C34.271 43.7996 34.3785 43.4771 34.4142 43.1194C34.4262 43.0596 34.4321 42.9938 34.4321 42.9225C34.4321 41.4724 32.8749 40.2732 30.9418 40.2732C30.5122 40.2732 30.1005 40.3271 29.7246 40.4523C31.2998 38.8235 35.2555 33.6327 36.24 32.2365C37.3318 30.6614 37.0991 20.2262 36.24 19.3133ZM33.8594 15.5007C34.5575 16.4136 34.9333 18.0066 34.8617 19.6892C34.3785 20.3693 34.0026 21.5865 33.9668 23.2153C33.8355 23.4659 33.6864 23.6986 33.5193 23.9134C33.394 22.6246 32.5527 24.6652 32.5527 24.6652C32.5527 24.6652 32.5706 24.7368 32.6064 24.8442C32.6184 24.868 32.6243 24.8919 32.6243 24.9158C31.8904 25.5959 31.0492 26.0613 30.3332 26.3835C29.5815 26.4014 28.6865 26.5625 28.4359 26.8847C26.9145 26.9742 24.7128 26.6699 23.9969 26.5983C23.7463 26.5625 23.5852 26.5267 23.4599 26.473L23.3346 26.3835C23.1735 26.2403 23.2093 26.0076 23.1735 25.7391C23.1019 25.2737 25.1962 23.5733 25.1962 23.5733L25.8047 23.2511C25.8047 23.2511 28.3285 25.0053 30.5122 23.6091C32.6959 22.2309 32.7496 20.2262 32.1589 17.6845C31.5862 15.1428 28.9908 14.1941 28.8476 14.1046C27.9347 13.6034 26.9145 13.8361 25.6257 14.6237C24.337 15.3934 23.9611 16.6105 23.9969 17.1654C24.0327 17.7202 23.8358 18.5436 23.442 18.7584C23.0482 18.9732 20.7034 19.4386 19.7727 19.4923C19.3789 19.5281 19.2178 19.367 19.1641 19.1522C19.182 19.009 19.182 18.8479 19.1641 18.7226C19.1999 18.472 19.2715 18.2035 19.2894 17.9887C19.3968 17.416 21.4194 15.5724 22.7081 14.1046C23.9969 12.6548 25.5004 11.4734 28.3822 11.7598C31.2461 12.0283 32.7496 14.0509 33.8594 15.5007ZM36.1147 30.1244C35.9357 33.0062 33.2866 35.1004 30.4406 38.4119C27.5946 41.7411 27.3261 41.6693 25.9658 40.8817C24.6055 40.0945 25.9658 37.0872 25.9658 37.0872C25.9658 37.0872 26.646 35.6553 27.3261 34.295C28.0242 32.9525 28.6149 28.1555 29.3846 27.4038C29.7604 27.0458 30.0468 27.0279 30.2795 27.2069C30.5301 27.4216 30.7091 27.887 30.7628 28.4777C30.8881 29.6053 29.7246 34.2413 29.7246 34.2413C29.7246 34.2413 30.2079 33.8117 32.1053 32.2365C33.9847 30.6614 34.5754 30.0707 34.5216 26.9026C34.4859 25.6138 34.5753 24.4683 34.6827 23.4838C34.8617 22.0698 35.1302 21.0137 35.3092 20.4409C35.5956 19.4923 36.0431 20.6557 36.1147 21.5149C36.1684 22.392 36.2937 27.2426 36.1147 30.1244ZM31.4609 28.7999C32.0694 28.5672 32.9286 28.1197 33.1613 27.3859C33.4835 26.3298 33.6088 25.4348 33.5551 24.3609C33.6983 24.158 33.8355 23.9552 33.9668 23.7523C33.9668 23.7881 33.9668 23.8239 33.9668 23.8597C33.9489 26.9384 33.752 28.6388 33.036 29.8738C32.3021 31.1626 30.5838 32.4513 31.0134 31.4848C31.2282 30.9836 31.3714 29.8559 31.4609 28.7999ZM13.9912 19.0269C14.7251 19.5818 17.4995 19.9039 18.5197 19.8682C18.7703 19.8503 18.9314 19.7608 19.0209 19.6176C19.1283 19.7608 19.2894 19.8503 19.54 19.8682C20.5602 19.9039 23.3167 19.5818 24.0506 19.0269C24.8023 18.4899 24.1759 17.416 24.3012 16.8611C24.4265 16.3062 25.93 14.4626 27.2904 14.391C28.6328 14.3373 31.0671 15.3218 31.7294 17.5592C32.4095 19.7966 32.2305 22.1056 30.5122 23.0542C28.7939 24.0029 27.165 23.4838 26.8608 23.0542C26.5386 22.6246 25.2498 22.6605 24.7666 23.3048C24.2654 23.9492 22.5471 25.0947 22.5471 25.757C22.5471 25.7928 22.5471 25.8286 22.5471 25.8644C22.1891 25.7033 21.7774 25.6317 21.5626 26.0971C21.1688 26.9921 20.417 29.5517 20.6139 30.4287C20.8108 31.2879 22.0817 31.0194 22.3681 31.4669C24.2117 34.474 22.3322 36.8903 20.417 37.5882C20.3813 37.123 20.2023 33.3642 20.238 32.684C20.2559 31.9502 20.417 26.2403 20.417 26.1687C20.417 26.0613 20.4528 25.9718 20.5244 25.8823C21.9206 24.2714 22.8155 23.2153 22.8871 23.1437C22.9408 23.1079 23.2451 23.0363 23.442 22.9826C23.6389 22.9289 23.8358 22.8752 23.9611 22.8215C24.1759 22.75 24.8023 22.2846 26.2343 21.1927C26.8965 20.7094 27.5767 20.1904 27.7557 20.0829C28.239 19.7966 30.2616 18.6868 30.4406 18.6331L30.369 18.3825L30.3153 18.1498C30.1184 18.2035 27.7915 19.4744 27.5051 19.6534C27.3083 19.7787 26.6639 20.2619 25.9479 20.8168C25.1603 21.4075 23.979 22.2846 23.8 22.3741C23.6747 22.4099 23.4957 22.4636 23.3167 22.4994C22.905 22.6067 22.6545 22.6783 22.5471 22.7857C22.4396 22.8931 21.1867 24.3609 20.1485 25.5601C20.0054 25.7391 19.9338 25.936 19.9338 26.1687C19.9338 26.2224 19.7727 31.9502 19.7369 32.6661C19.7011 33.4 19.9159 37.4809 19.9159 37.6599L20.238 37.6421C19.8443 37.7673 19.4326 37.8212 19.0746 37.7673C18.7405 37.7316 18.4123 37.6718 18.0901 37.5882H18.108C18.108 35.8164 18.1438 31.1089 18.2333 30.5898C18.3407 30.0349 18.287 27.4037 18.2512 26.294C18.2512 26.115 18.1796 25.936 18.0722 25.7749C16.7477 23.9313 15.9243 22.929 15.6021 22.8215C15.4947 22.7857 15.3874 22.75 15.28 22.7141C14.9041 22.6067 14.4924 22.4815 13.9017 22.1593C13.5795 21.9982 12.5593 21.3001 11.4674 20.5662C9.33739 19.1164 8.01286 18.2214 7.69068 18.1498L7.58327 18.6331C7.86968 18.7047 9.87438 20.065 11.1989 20.9779C12.3445 21.7476 13.3289 22.4099 13.669 22.6067C14.2955 22.9468 14.7609 23.09 15.1368 23.1974C15.2441 23.2213 15.3456 23.2511 15.441 23.2869C15.62 23.3764 16.4076 24.2714 17.6785 26.0613C17.7262 26.1329 17.7501 26.2164 17.7501 26.3119C17.8037 28.066 17.8217 30.0886 17.7501 30.5182C17.6427 31.1268 17.6247 36.5145 17.6247 37.463C16.157 36.9798 15.0473 36.0312 14.9041 34.5992C14.7251 32.7198 15.7632 31.4669 16.2286 31.3595C16.7119 31.2521 17.1415 30.1065 16.7835 29.4264C16.4076 28.7462 16.0854 26.7952 15.5126 26.5267C15.4888 26.5148 15.459 26.5028 15.4231 26.4909C15.4947 26.2582 15.4947 26.0076 15.4947 25.757C15.4947 25.0947 13.7764 23.9492 13.2931 23.3048C12.7919 22.6605 11.5032 22.6246 11.1989 23.0542C10.8946 23.4838 9.2658 24.0029 7.54746 23.0542C5.82916 22.1056 5.63225 19.7966 6.31242 17.5592C6.9926 15.3218 9.40898 14.3373 10.7693 14.391C12.1118 14.4626 13.6332 16.3062 13.7406 16.8611C13.8659 17.416 13.2573 18.4899 13.9912 19.0269ZM11.0557 27.5649C11.3779 27.8333 11.4674 28.245 11.7001 28.5851C11.9686 28.9789 12.3445 29.2116 12.5235 29.677C12.5593 29.7665 12.6309 29.8381 12.7204 29.8738C12.6488 30.0528 12.5951 30.2139 12.5414 30.375C12.2729 31.2521 11.2884 32.9883 12.1476 35.4763C12.9888 37.9464 14.9041 39.9154 17.2131 40.5957C17.2489 40.6076 17.2847 40.6194 17.3205 40.6313C15.8885 40.6848 14.5282 40.8461 13.2394 41.0608C13.4363 40.6313 13.5795 37.7851 10.9662 33.2926C10.9662 33.2926 9.6417 28.1018 9.49848 27.1353C9.92807 27.1532 10.2861 27.1532 10.5546 27.171C10.6739 27.183 10.8051 27.1949 10.9483 27.2069C10.8946 27.3143 10.9125 27.4574 11.0557 27.5649ZM11.7359 27.2248C12.434 27.2069 13.1858 27.189 13.848 27.189C13.6153 27.7438 13.311 28.424 13.0247 29.0863C12.8457 28.782 12.5951 28.5314 12.3445 28.2271C12.0939 27.9049 12.0044 27.529 11.7359 27.2248ZM24.6413 41.043C23.5196 40.852 22.3501 40.7209 21.133 40.6492C22.5828 40.291 23.979 39.4856 24.8739 38.0181C24.4981 39.5038 24.5518 40.5957 24.6413 41.043ZM25.1603 37.0157C23.8895 39.4499 21.6521 40.005 20.0412 40.4344C18.4302 40.8639 15.6916 39.9333 13.9375 38.0898C12.2013 36.246 12.076 33.5432 12.2192 32.2008C12.2908 31.6101 12.6309 30.733 13.0425 29.8917C13.2036 29.8381 13.3289 29.6948 13.2394 29.4801C13.669 28.6209 14.1165 27.8512 14.2955 27.4932C14.3671 27.35 14.4387 27.2426 14.5103 27.171C14.743 27.1532 14.922 27.0815 15.0651 26.992C15.1368 27.0279 15.2263 27.0637 15.3158 27.0815C15.7274 27.2069 16.3897 29.6948 16.3897 29.6948L16.4613 30.375C16.4613 30.375 14.0628 31.9323 14.4387 34.3845C14.8146 36.8546 16.4434 37.839 18.824 38.1076C22.8692 38.5728 23.7105 34.7425 23.5315 33.3105C23.3525 31.8786 22.6902 31.27 22.207 31.0731C21.7416 30.8941 21.1151 30.4108 21.0793 29.9812C21.0435 29.5517 21.491 27.3143 21.7774 26.4551C21.9564 25.9539 22.2606 25.9897 22.565 26.1508C22.6186 26.6699 22.8155 27.1353 23.6031 27.171C24.0685 28.066 24.6771 29.8201 25.2319 31.091C25.8226 32.4155 26.2164 33.7938 25.7689 35.4942C25.5422 36.0073 25.3513 36.4906 25.1962 36.9441C25.1842 36.9679 25.1723 36.9918 25.1603 37.0157ZM26.2164 33.3105C26.0374 32.4692 25.6078 31.2163 25.1424 30.0171C25.2498 30.0171 25.3572 29.9633 25.4288 29.8381C25.8942 29.0505 26.4073 28.2868 26.9682 27.5469C27.0755 27.4216 27.0577 27.2964 27.004 27.2069C27.183 27.1949 27.35 27.183 27.5051 27.171C27.7199 27.1532 28.0242 27.1532 28.3643 27.1353C28.2211 28.1376 26.8965 33.2926 26.8965 33.2926C26.6818 33.6744 26.4789 34.0384 26.288 34.3845C26.3059 34.0444 26.3059 33.6685 26.2164 33.3105ZM19.182 11.903C18.9314 11.9388 18.9135 12.3684 18.9135 12.3684C18.5376 12.082 18.1259 12.3684 18.1259 12.3684C16.9625 11.6882 17.7858 10.2026 17.8574 9.93407C17.9469 9.66561 18.3407 9.68348 18.645 10.0594C18.9493 10.4174 19.4147 10.3637 19.4147 10.3637C19.4147 10.3637 19.4147 11.8493 19.182 11.903ZM19.7727 12.9233C19.7727 12.9233 19.9338 13.5318 19.7727 13.8361C19.6116 14.1583 19.182 14.1046 19.182 14.1046H18.9851C18.9851 14.1046 18.7703 13.2992 19.182 13.1738C19.5937 13.0485 19.7727 12.9233 19.7727 12.9233ZM4.20032 15.5007C5.31007 14.0509 6.79569 12.0283 9.67748 11.7598C12.5593 11.4734 14.0628 12.6548 15.3515 14.1046C16.6403 15.5724 18.6629 17.416 18.7524 17.9887C18.7882 18.2035 18.8598 18.472 18.8956 18.7226C18.8777 18.8479 18.8777 19.009 18.8777 19.1522C18.824 19.367 18.6629 19.5281 18.287 19.4923C17.3384 19.4386 15.0115 18.9732 14.6177 18.7584C14.206 18.5436 14.027 17.7202 14.0628 17.1654C14.0807 16.6105 13.7227 15.3934 12.434 14.6237C11.1452 13.8361 10.125 13.6034 9.19421 14.1046C9.0689 14.1941 6.47351 15.1428 5.88284 17.6845C5.31007 20.2262 5.36376 22.2309 7.54746 23.6091C9.7312 25.0053 12.2371 23.2511 12.2371 23.2511L12.8636 23.5733C12.8636 23.5733 14.9399 25.2737 14.8862 25.7391C14.8504 25.9718 14.8683 26.1687 14.7788 26.3119C14.564 26.3119 14.3492 26.3656 14.1702 26.5804C14.1344 26.5804 14.0986 26.5864 14.0628 26.5983C13.311 26.6699 10.9304 27.01 9.40898 26.8668C9.1763 26.5804 8.42454 26.4372 7.72646 26.4014C6.95678 26.0613 6.06184 25.5243 5.27426 24.7726C5.29217 24.7009 5.31007 24.6652 5.31007 24.6652C5.31007 24.6652 4.5762 22.911 4.37931 23.6986C4.18838 23.4122 4.02132 23.1079 3.87813 22.7857C3.80654 21.6223 3.55594 20.6736 3.21586 20.0472C3.07267 18.2393 3.44855 16.4852 4.20032 15.5007ZM21.133 15.2501C20.0233 16.3957 19.1283 17.3802 19.1283 17.3802L19.0209 17.9887L18.9314 17.3802C18.9314 17.3802 17.9111 16.2525 16.7119 15.0175L16.9088 15.1965L21.133 15.2501ZM20.1844 14.5163C20.1844 14.5163 20.3991 14.212 20.417 13.5139C20.4528 12.8159 20.596 12.9233 20.596 12.9233C20.596 12.9233 20.954 13.1738 21.0972 13.8898C21.2046 14.4089 21.1867 14.6416 21.2046 14.7311C21.2225 14.749 21.2404 14.7669 21.2225 14.7669C21.2106 14.7788 21.2046 14.7669 21.2046 14.7311C21.133 14.6953 20.954 14.6416 20.7392 14.6416C20.3991 14.6416 20.1844 14.5163 20.1844 14.5163ZM23.9969 27.189C24.6949 27.189 25.5541 27.2248 26.3059 27.2248C25.7928 27.893 25.3154 28.5911 24.8739 29.319C24.5338 28.4419 24.2117 27.6544 23.9969 27.189ZM22.7976 12.4579C23.4599 12.5116 23.7821 11.9567 23.7821 11.9567C24.5697 11.9567 25.0172 11.6345 25.0172 11.6345C25.0172 11.6345 22.4396 9.9162 22.1891 9.28971C21.9385 8.68113 23.0124 8.87803 23.0124 8.87803L23.1198 9.21812L23.8716 9.48661L24.0327 9.70139L25.2498 9.77298L26.6102 11.3839C26.6102 11.3839 26.6161 11.3839 26.6281 11.3839C26.6281 11.3958 26.634 11.4078 26.646 11.4197C25.9121 11.4913 25.0887 11.7061 24.3907 12.2252C23.7105 12.7085 22.7797 13.5855 21.9027 14.4626C21.9027 14.4626 21.6163 14.212 21.4552 13.3886C21.2762 12.5653 21.5268 12.7801 22.028 12.7622C22.5112 12.7264 22.7976 12.4579 22.7976 12.4579ZM9.85647 9.6477C10.2682 8.94962 11.7001 6.08575 12.3803 5.67407L12.434 5.42348C12.434 5.42348 11.8433 5.56666 11.6822 5.15498C11.6822 5.15498 11.8254 4.85071 12.2371 4.94017L12.434 4.5285C12.434 4.5285 11.7359 4.70749 11.718 4.08104C11.718 4.08104 12.6846 4.04523 13.3468 3.47245C13.9912 2.88178 14.5103 2.81018 14.5103 2.81018C14.5103 2.81018 14.3492 3.22186 14.9399 3.32926C14.9399 3.32926 15.262 2.81018 15.1368 1.95102C15.1368 1.95102 15.0651 1.64673 14.3134 2.13001C13.5795 2.63119 12.9173 3.25766 11.9686 3.04287C11.9686 3.04287 12.0402 2.63119 12.7919 2.3985C13.5258 2.16581 14.4924 0.930762 15.6737 1.10975C15.7274 1.10975 15.9959 1.93312 15.9959 3.04287C15.9959 4.13472 16.9088 4.86858 17.6068 4.86858C18.287 4.86858 18.466 4.5464 18.466 4.5464L18.6987 4.6359C18.6987 4.6359 18.9851 2.57749 18.5018 1.93312C18.0006 1.27084 17.6068 1.10975 17.6068 1.10975C17.6068 1.10975 17.9469 0.322187 18.9851 0.286388C20.0412 0.250589 20.5065 0.859163 20.5065 1.64673C20.5065 2.4164 20.7571 4.42113 21.3657 4.86858C21.3657 4.86858 22.3144 4.99389 22.5471 4.6359C22.7797 4.29581 22.8692 3.41876 22.6365 2.2732C22.5828 2.00472 22.6545 1.70043 22.8334 1.48564C23.084 1.16345 23.4957 0.841263 24.0148 1.05606C25.4109 1.61093 26.7355 2.89968 26.8965 3.15027C26.5028 2.86388 25.8047 2.4343 24.8023 2.2732C24.4802 2.21951 24.1938 2.20161 23.9253 2.20161C23.6747 2.20161 23.4599 2.4343 23.4778 2.70279C23.5017 3.09657 23.5256 3.49632 23.5494 3.90204C23.5494 3.90204 23.5494 4.94017 23.1556 5.38767C22.744 5.83516 22.1533 6.26474 21.6879 5.97834C21.2404 5.69198 20.9182 5.04758 20.6855 4.97599C20.4707 4.9223 20.238 4.94017 20.238 4.94017C20.238 4.94017 19.9874 5.24448 20.5244 5.90675C21.0614 6.55111 21.3836 6.60483 21.3836 6.60483C21.3836 6.60483 22.5471 6.39002 23.1019 6.39002C23.6568 6.39002 23.9074 6.49742 23.9074 6.49742C23.9074 6.49742 24.9277 8.53794 24.516 9.21812C24.516 9.21812 23.621 8.26945 23.5136 7.21341C23.5136 7.21341 23.1735 6.8196 23.084 7.33869C23.0124 7.83986 23.0661 8.16204 23.0661 8.16204C23.0661 8.16204 22.7797 8.37685 22.6186 7.92936C22.4576 7.48187 22.4396 7.32078 22.2965 7.23128C22.1533 7.14178 22.0638 7.62509 22.0638 7.62509C22.0638 7.62509 21.6879 7.32078 21.5268 7.24919C21.3657 7.1955 21.3836 7.32078 21.3836 7.32078C21.3836 7.32078 21.6521 8.26945 21.5089 8.59163C21.3657 8.89594 21.3299 8.87803 20.8287 8.37685C20.3454 7.89359 20.596 8.52004 20.596 8.52004C20.596 8.52004 20.8108 9.39711 21.0435 9.93407C21.2583 10.4711 21.2583 10.4711 21.2583 10.4711C21.2583 10.4711 21.5984 9.86248 21.5984 9.93407C21.5984 10.0236 21.7774 11.4913 21.3657 11.8672C20.954 12.2252 20.4528 12.0104 20.4528 12.0104C20.4528 12.0104 20.1128 10.7575 20.3991 10.0236C20.3991 10.0236 19.4147 9.86248 18.6271 9.0928C17.8217 8.34104 17.0341 8.12627 16.9804 5.56666L16.7835 5.42348L16.7119 5.06549C16.7119 5.06549 16.0496 5.22658 15.6737 5.04758C15.28 4.85071 15.0831 4.5464 15.1189 4.40322C15.1546 4.26004 14.1344 4.5285 14.1344 4.5285C14.1344 4.5285 13.8838 5.0118 14.1344 5.11917C14.385 5.22658 14.922 5.08339 15.0473 5.33398C15.1546 5.56666 15.2263 8.12627 13.8659 9.0928C13.8659 9.0928 13.5079 9.07493 13.8659 8.46635C14.2418 7.83986 14.922 6.47952 14.6535 5.90675C14.6177 5.82323 14.5879 5.75759 14.564 5.70985H14.1523L13.8838 6.04993C13.8838 6.04993 13.6511 7.66087 12.953 8.55585C12.255 9.46871 11.9865 9.61189 11.9865 9.61189C11.9865 9.61189 11.4495 9.21812 11.9865 8.69903C12.5235 8.19786 13.5795 6.74801 13.5079 5.78147L13.4184 5.49507C13.4184 5.49507 13.0247 5.36976 12.7024 6.04993C12.3803 6.71223 10.5546 9.88038 10.304 10.1489C10.0713 10.3995 9.85647 10.4532 9.85647 10.4532C9.85647 10.4532 9.4448 10.3458 9.85647 9.6477ZM24.1043 4.38531C24.0685 4.17054 23.9969 3.93782 23.979 3.56195C23.9611 3.25766 23.979 3.00707 23.9969 2.82808C23.9969 2.82808 24.8203 2.79228 25.3035 2.93547C25.6973 3.02497 26.1985 3.32926 26.6639 4.18841C26.4491 4.24807 26.2343 4.30774 26.0195 4.36741C26.0195 4.36741 26.1985 5.24448 26.4133 5.42348C26.4133 5.42348 26.1269 5.45926 25.751 5.11917C25.3751 4.79699 25.1603 5.04758 25.1603 5.04758C25.1603 5.04758 25.4467 5.36976 25.3214 5.60248C25.3214 5.60248 25.1067 5.24448 24.7844 5.45926C24.4623 5.65616 24.1043 5.74566 24.1043 5.74566C24.2117 5.15498 24.1759 4.68959 24.1043 4.38531ZM25.2498 6.71224C25.3572 7.3745 25.5899 7.89359 26.0911 8.77063C26.6102 9.6477 26.2343 9.79088 26.2343 9.79088C24.7487 8.82431 24.5697 6.31843 24.5697 6.31843C24.5697 6.31843 25.1424 6.06784 25.2498 6.71224ZM27.7915 8.73485C28.5433 9.93407 28.5791 10.4532 28.5791 10.4532C28.5791 10.4532 28.4717 10.3457 27.2188 9.34339C25.9837 8.34104 26.0911 6.35424 26.0911 6.35424C26.646 6.62274 27.0576 7.51768 27.7915 8.73485ZM23.1556 10.8827C23.1019 10.8111 23.5315 10.9365 23.8179 11.2586C24.1043 11.5987 24.2117 11.6345 24.2117 11.6345C24.2117 11.6345 23.8895 11.7777 23.5136 11.724C23.1556 11.6524 23.1556 11.9567 23.1556 11.9567H22.7618C22.7618 11.9567 22.4396 11.545 22.6007 11.1691L23.2093 11.4197C23.2093 11.4197 23.3704 11.187 23.1556 10.8827ZM15.8348 7.23128C15.7453 8.43054 15.083 8.62744 15.083 8.62744C15.083 8.62744 15.083 8.62744 15.0473 8.30526C14.9936 7.96518 15.4769 6.47952 15.6558 6.08575C15.8348 5.69198 16.2644 5.88884 16.2644 5.88884C16.2644 5.88884 16.336 5.96043 16.5329 6.56902C16.7477 7.1955 16.5329 8.16204 16.5329 8.16204C16.5329 8.16204 16.3002 8.25154 16.1212 7.80409C15.978 7.42819 16.1212 6.8017 16.1212 6.8017C16.1212 6.8017 15.9243 6.03206 15.8348 7.23128ZM9.31952 11.5092C9.85647 11.3481 10.125 11.1691 10.1966 11.1154C10.4471 10.9186 10.662 10.6858 10.8409 10.3995L10.9304 10.2563C14.0807 10.0057 14.564 9.28971 14.564 9.28971C14.564 9.28971 14.9399 9.34339 15.5126 8.96753C16.0854 8.57372 17.1415 8.34104 17.1415 8.34104C17.2668 9.7372 18.2512 9.0928 17.5532 9.66561C16.8551 10.2205 17.0341 12.5832 17.0341 12.5832L17.3205 12.4937L17.3563 13.2275L17.7142 13.2633C17.7142 13.8719 16.4434 14.391 16.1749 14.4805C15.28 13.5855 14.3492 12.7085 13.6511 12.2252C11.8791 10.9365 9.31952 11.5092 9.31952 11.5092C9.31952 11.5092 13.0783 11.2586 9.1763 11.5629C9.23597 11.551 9.28371 11.5331 9.31952 11.5092ZM17.9291 13.854C18.1259 13.3528 18.4123 13.3528 18.466 13.3528V13.9793C18.466 13.9793 18.6629 14.2299 18.287 14.4984C17.9291 14.7669 17.5173 14.4984 17.5173 14.4984C17.5173 14.4984 17.7142 14.3373 17.9291 13.854ZM1.74812 30.1244C1.56913 27.2426 1.69442 22.392 1.74812 21.5328C1.81972 20.6736 2.2672 19.4923 2.55359 20.4409C2.73258 21.0137 3.00107 22.0698 3.18006 23.5017C3.28746 24.4683 3.37695 25.6138 3.34115 26.9026C3.28746 30.0707 3.87813 30.6614 5.75756 32.2365C7.65486 33.8117 8.13813 34.2413 8.13813 34.2413C8.13813 34.2413 6.97469 29.6053 7.1 28.4956C7.15369 27.9049 7.33268 27.4216 7.58327 27.2069C7.81595 27.0279 8.10236 27.0458 8.47822 27.4038C9.24789 28.1555 9.83857 32.9525 10.5366 34.3129C11.2168 35.6553 11.897 37.1052 11.897 37.1052C11.897 37.1052 13.2573 40.0945 11.897 40.8817C10.5366 41.6693 10.2682 41.7411 7.42218 38.4297C4.5762 35.1004 1.92711 33.0241 1.74812 30.1244ZM4.70149 27.3859C4.93417 28.1197 5.79334 28.5672 6.40192 28.8178C6.49142 29.8738 6.6346 31.0015 6.84942 31.4848C7.279 32.4692 5.56066 31.1805 4.8268 29.8738C4.11082 28.6388 3.91393 26.9384 3.89603 23.8597C3.89603 23.7404 3.89603 23.6151 3.89603 23.4838C3.89603 23.4719 3.89603 23.46 3.89603 23.448C4.02729 23.6747 4.17048 23.8955 4.32561 24.1103C4.23612 25.3095 4.34351 26.2582 4.70149 27.3859ZM6.34824 27.8154C4.9163 27.3859 5.0058 25.9181 5.18476 25.1484C5.29217 25.2678 5.40555 25.3811 5.52485 25.4885C5.95443 25.9002 6.38402 26.2045 6.8136 26.4193C6.8136 26.4193 6.80766 26.4193 6.79569 26.4193C6.59883 26.4551 6.45561 26.5088 6.41983 26.5625C6.34824 26.6699 6.33033 27.171 6.34824 27.8154ZM4.34351 42.9403C4.34351 41.8663 5.57857 41.0073 7.1 41.0073C8.13813 41.0073 9.05103 41.4189 9.49848 42.0275C8.08445 42.5108 6.38402 43.6384 6.38402 43.6384C5.13108 44.2826 4.34351 43.4237 4.34351 42.9403ZM30.906 46.878C30.4227 47.3792 29.6351 47.4331 29.0803 47.0393C26.7534 45.4105 23.2272 44.3543 19.2894 44.3543C19.2058 44.3543 19.1164 44.3602 19.0209 44.3721C18.9254 44.3602 18.8359 44.3543 18.7524 44.3543C14.8146 44.3543 11.2884 45.4105 8.96153 47.0393C8.40663 47.4331 7.61909 47.3792 7.13578 46.878L5.13108 44.4438C5.13108 44.4438 5.57857 44.8198 6.49142 44.2826C8.63935 43.012 12.0939 41.4903 17.1594 41.222C17.1594 41.2339 17.1594 41.2458 17.1594 41.2577C17.7083 41.222 18.2691 41.1983 18.8419 41.186C18.9016 41.186 18.9612 41.186 19.0209 41.186C19.0806 41.186 19.1402 41.186 19.1999 41.186C19.7727 41.1983 20.3335 41.222 20.8824 41.2577C20.8824 41.2458 20.8824 41.2339 20.8824 41.222C25.9479 41.4903 29.4025 43.012 31.5504 44.2826C32.4632 44.8198 32.9107 44.4438 32.9107 44.4438L30.906 46.878ZM33.6804 42.9225C33.6804 43.4236 32.9107 44.2826 31.6578 43.6384C31.6578 43.6384 29.9573 42.5108 28.5254 42.0275C28.9908 41.4189 29.9036 41.0073 30.9418 41.0073C32.4632 41.0073 33.6804 41.8663 33.6804 42.9225ZM31.443 26.5625C31.4072 26.5088 31.3177 26.473 31.1924 26.4551C31.6219 26.2224 32.0873 25.9002 32.5348 25.4885C32.5945 25.4289 32.6542 25.3692 32.7138 25.3095C32.857 26.0971 32.857 27.4037 31.4967 27.8154C31.5146 27.171 31.4967 26.6699 31.443 26.5625Z" fill="#231F20"/>
<path fill-rule="evenodd" clip-rule="evenodd" d="M11.1452 25.9181C14.7609 25.8465 12.9173 25.1485 12.9173 25.1485C12.9173 25.1485 12.0939 24.1282 11.7896 24.2535C11.4674 24.3788 11.6822 24.8442 10.6441 24.8979C9.60589 24.9695 7.27897 25.6675 5.61435 23.0363C3.94972 20.3873 4.4688 20.0114 4.5046 19.6534C4.5404 19.2775 4.32561 17.9888 4.32561 17.9888C4.32561 18.0783 3.26955 20.6916 4.64781 22.6247C6.04393 24.5578 7.51169 25.9719 11.1452 25.9181Z" fill="#231F20"/>
<path fill-rule="evenodd" clip-rule="evenodd" d="M25.5899 12.9234C23.9969 13.3529 21.3478 17.5056 20.8645 17.7383C20.3633 17.9888 20.1486 18.2394 20.3633 18.3647C20.5781 18.49 21.67 18.2036 22.2248 18.2036C22.7618 18.2036 23.1377 18.0247 23.1735 17.7383C23.1914 17.4698 22.9766 16.2705 23.6568 15.4472C24.337 14.6059 25.4109 12.9234 27.7736 12.9234C28.3464 12.9234 28.9729 12.9234 28.9729 12.9234C28.9729 12.9234 27.5946 12.3685 25.5899 12.9234Z" fill="#231F20"/>
<path fill-rule="evenodd" clip-rule="evenodd" d="M14.385 15.4472C15.0651 16.2705 14.8504 17.4698 14.8861 17.7383C14.9219 18.0247 15.2799 18.2036 15.8348 18.2036C16.3718 18.2036 17.4636 18.49 17.6784 18.3647C17.8932 18.2394 17.6784 17.9888 17.1952 17.7383C16.694 17.5056 14.0628 13.3529 12.4518 12.9234C10.465 12.3685 9.08679 12.9234 9.08679 12.9234C9.08679 12.9234 9.71328 12.9234 10.286 12.9234C12.6487 12.9234 13.7227 14.6059 14.385 15.4472Z" fill="#231F20"/>
<path fill-rule="evenodd" clip-rule="evenodd" d="M32.4453 23.0363C30.7807 25.6675 28.4538 24.9695 27.3977 24.8979C26.3596 24.8442 26.5744 24.3788 26.2701 24.2535C25.9658 24.1282 25.1245 25.1485 25.1245 25.1485C25.1245 25.1485 23.2988 25.8465 26.9144 25.9181C30.548 25.9719 32.0157 24.5578 33.394 22.6247C34.7722 20.6916 33.734 18.0783 33.734 17.9888C33.734 17.9888 33.5193 19.2775 33.555 19.6534C33.573 20.0114 34.1099 20.3873 32.4453 23.0363Z" fill="#231F20"/>
<path fill-rule="evenodd" clip-rule="evenodd" d="M14.2418 36.3175C12.6129 33.8474 14.0628 32.0574 14.4924 31.1446C14.922 30.2496 15.2263 30.6076 15.441 30.3928C15.6558 30.1601 15.1009 29.0504 15.1009 29.0504C15.1009 29.0504 15.1725 27.1531 13.8122 30.3391C12.4518 33.5073 13.0962 35.3509 14.2239 37.3199C15.3515 39.2707 17.929 39.3424 18.0006 39.3781C18.0006 39.3781 16.9983 38.6982 16.6761 38.5909C16.3539 38.4653 15.8527 38.8056 14.2418 36.3175Z" fill="#231F20"/>
<path fill-rule="evenodd" clip-rule="evenodd" d="M22.5113 27.4215C22.3323 27.5647 22.1712 28.6208 21.9743 29.1041C21.7774 29.5874 21.7953 29.999 22.028 30.1243C22.2428 30.2496 23.3346 30.5181 23.7821 31.431C24.2296 32.3438 25.2678 33.9369 24.4086 36.0311C24.2117 36.5322 23.979 37.0871 23.979 37.0871C23.979 37.0871 24.9277 36.0848 25.1961 34.0979C25.4109 32.5228 22.8872 28.6208 22.8513 28.0838C22.8334 27.5647 22.7082 27.2783 22.5113 27.4215Z" fill="#231F20"/>
<path fill-rule="evenodd" clip-rule="evenodd" d="M9.03314 17.0761C9.15842 17.1835 12.4877 19.9579 14.4387 20.6738C16.0854 21.2824 18.3049 23.3587 18.7345 23.7704C18.824 23.842 18.9135 23.8778 19.0209 23.8778C19.1283 23.8778 19.2357 23.842 19.3252 23.7704C20.5781 22.5891 21.2941 21.9805 21.4552 21.891C21.8311 21.8373 23.0124 21.3182 23.5136 21.0318C24.0685 20.6917 29.0266 17.5415 29.2414 17.4162L28.9729 17.0045C28.9192 17.0403 23.8179 20.2801 23.263 20.6022C22.7261 20.9244 21.5626 21.3898 21.4015 21.4077C21.2762 21.4077 21.133 21.4077 19.0209 23.3587C18.3586 22.7323 16.2644 20.8349 14.5998 20.2085C12.7204 19.5283 9.37323 16.7181 9.33741 16.7002L9.03314 17.0761Z" fill="#231F20"/>
<path fill-rule="evenodd" clip-rule="evenodd" d="M8.85416 45.4462C8.86609 45.506 8.86609 45.5535 8.85416 45.5892C8.83027 45.6609 8.78257 45.7148 8.71098 45.7504C8.63935 45.7861 8.56182 45.7921 8.47826 45.7683C8.40667 45.7326 8.34106 45.6609 8.28139 45.5535C8.22173 45.4343 8.19784 45.3329 8.20977 45.2493C8.23366 45.1657 8.2814 45.1003 8.35299 45.0524C8.4365 45.0048 8.50809 44.9926 8.56776 45.0167C8.60357 45.0286 8.64533 45.0583 8.69307 45.1062C8.78257 45.0524 8.81835 45.0345 8.90785 44.9807C8.87207 44.9212 8.81835 44.8733 8.74676 44.8376C8.60357 44.7659 8.44248 44.7778 8.26349 44.8733C8.12031 44.945 8.03081 45.0464 7.99499 45.1776C7.93533 45.3329 7.95323 45.5 8.04868 45.6787C8.14416 45.834 8.25751 45.9355 8.38876 45.983C8.52002 46.0309 8.65726 46.0131 8.80044 45.9295C8.93174 45.8697 9.01525 45.7861 9.05107 45.6787C9.09877 45.5595 9.10475 45.4402 9.06894 45.321C8.97944 45.3745 8.94366 45.3923 8.85416 45.4462Z" fill="#231F20"/>
<path fill-rule="evenodd" clip-rule="evenodd" d="M9.55219 45.285C9.51641 45.1777 9.48059 45.1242 9.42691 45.0168C9.64168 44.9273 9.74909 44.8734 9.96386 44.766C9.92809 44.6943 9.92809 44.6586 9.89227 44.5869C9.6775 44.6943 9.57009 44.7304 9.35532 44.8377C9.3195 44.7482 9.3016 44.7125 9.24791 44.623C9.48059 44.5156 9.60591 44.4439 9.83859 44.3544C9.82068 44.2648 9.80277 44.2292 9.767 44.1575C9.42691 44.3009 9.26582 44.39 8.9436 44.5513C9.14051 44.9629 9.23001 45.1598 9.42691 45.5893C9.74909 45.4284 9.91018 45.3389 10.2324 45.1955C10.1966 45.1242 10.1787 45.0881 10.1608 45.0168C9.91018 45.1242 9.80277 45.1777 9.55219 45.285Z" fill="#231F20"/>
<path fill-rule="evenodd" clip-rule="evenodd" d="M10.6798 43.7814C10.7872 44.0679 10.8409 44.2291 10.9483 44.5155C10.6619 44.3008 10.5187 44.1752 10.2144 43.9605C10.1249 43.9965 10.0712 44.0322 9.98175 44.0679C10.1428 44.4977 10.2323 44.6942 10.4113 45.1241C10.4829 45.0881 10.5366 45.0702 10.6082 45.0346C10.5008 44.7303 10.4292 44.5869 10.3218 44.2826C10.6261 44.4977 10.7693 44.6229 11.0557 44.8555C11.1452 44.8198 11.1989 44.802 11.2884 44.7659C11.1273 44.3365 11.0557 44.1217 10.8946 43.6919C10.8051 43.7279 10.7693 43.7458 10.6798 43.7814Z" fill="#231F20"/>
<path fill-rule="evenodd" clip-rule="evenodd" d="M11.9686 43.3164C11.5927 43.4238 11.3958 43.4951 11.0199 43.6385C11.0557 43.7102 11.0736 43.7459 11.0915 43.8354C11.2347 43.7815 11.3063 43.7459 11.4316 43.7102C11.5569 44.068 11.6285 44.2471 11.7359 44.587C11.8254 44.5692 11.8791 44.5513 11.9686 44.5157C11.8612 44.1575 11.7896 43.9784 11.6822 43.6207C11.8254 43.5668 11.8791 43.549 12.0223 43.4955C12.0044 43.4238 11.9865 43.3877 11.9686 43.3164Z" fill="#231F20"/>
<path fill-rule="evenodd" clip-rule="evenodd" d="M13.2931 44.0144C13.2812 43.9902 13.2692 43.9546 13.2573 43.907C13.2394 43.871 13.2394 43.8531 13.2394 43.8353C13.2155 43.7517 13.1857 43.6982 13.1499 43.6741C13.126 43.6384 13.0843 43.6146 13.0246 43.6027C13.0843 43.5667 13.1201 43.5191 13.132 43.4593C13.1439 43.3999 13.1439 43.346 13.132 43.2985C13.1201 43.2505 13.1022 43.2149 13.0783 43.1907C13.0544 43.1551 13.0246 43.1253 12.9888 43.1016C12.953 43.0774 12.9113 43.0655 12.8635 43.0655C12.8158 43.0536 12.7502 43.0596 12.6666 43.0833C12.4518 43.155 12.3265 43.1907 12.1118 43.2624C12.237 43.6919 12.3087 43.9248 12.4518 44.3543C12.5413 44.3186 12.5771 44.3186 12.6666 44.2826C12.6129 44.1039 12.595 44.0322 12.5413 43.8531C12.6308 43.8175 12.6845 43.8175 12.774 43.7814C12.8456 43.7576 12.8934 43.7576 12.9172 43.7814C12.953 43.7933 12.9769 43.8353 12.9888 43.907C13.0067 43.9427 13.0067 43.9605 13.0246 44.0144C13.0365 44.0381 13.0485 44.0679 13.0604 44.1039C13.0723 44.1158 13.0843 44.1336 13.0962 44.1574C13.2036 44.1217 13.2394 44.1217 13.3468 44.0857C13.3468 44.0679 13.3468 44.0679 13.3468 44.05C13.3229 44.05 13.305 44.0381 13.2931 44.0144ZM12.8635 43.5489C12.8397 43.5607 12.8039 43.5726 12.7561 43.5845C12.6487 43.6206 12.595 43.6384 12.4876 43.6741C12.4518 43.5489 12.4339 43.4954 12.3981 43.3698C12.5055 43.3341 12.5592 43.3341 12.6666 43.2985C12.7263 43.2862 12.768 43.2802 12.7919 43.2802C12.8397 43.2921 12.8754 43.3341 12.8993 43.4058C12.9113 43.4653 12.8993 43.5132 12.8635 43.5489Z" fill="#231F20"/>
<path fill-rule="evenodd" clip-rule="evenodd" d="M13.6154 42.8329C13.5617 43.3163 13.5259 43.5667 13.4722 44.05C13.5796 44.0322 13.6333 44.0144 13.7228 43.9783C13.7228 43.8888 13.7407 43.8353 13.7407 43.7458C13.9197 43.6919 13.9913 43.674 14.1702 43.6384C14.206 43.7279 14.2418 43.7636 14.2955 43.8531C14.385 43.8175 14.4387 43.8175 14.5461 43.7996C14.2955 43.3698 14.1702 43.1729 13.9018 42.7612C13.7943 42.7973 13.7228 42.7973 13.6154 42.8329ZM13.7586 43.531C13.7764 43.3341 13.7943 43.2446 13.8123 43.0477C13.9197 43.2089 13.9554 43.2984 14.0628 43.4593C13.9376 43.4771 13.8838 43.4953 13.7586 43.531Z" fill="#231F20"/>
<path fill-rule="evenodd" clip-rule="evenodd" d="M14.8862 43.5133C14.8146 43.1373 14.7788 42.9583 14.7251 42.5823C14.6177 42.6005 14.5639 42.6183 14.4745 42.6361C14.5639 43.0835 14.5998 43.3164 14.6893 43.7637C15.0114 43.692 15.1725 43.6563 15.4947 43.6028C15.4768 43.5311 15.4768 43.4955 15.4589 43.4059C15.2263 43.4416 15.1188 43.4594 14.8862 43.5133Z" fill="#231F20"/>
<path fill-rule="evenodd" clip-rule="evenodd" d="M16.7656 42.815C16.8014 42.7909 16.8312 42.7671 16.8551 42.7433C16.8909 42.6957 16.9028 42.6359 16.8909 42.5642C16.8789 42.4925 16.8551 42.439 16.8193 42.4034C16.7477 42.3317 16.6403 42.3019 16.4971 42.3138C16.2644 42.3317 16.157 42.3495 15.9243 42.3852C15.978 42.8328 16.0138 43.0654 16.0675 43.5131C16.2823 43.4953 16.3718 43.477 16.5866 43.4592C16.6462 43.4473 16.6999 43.4354 16.7477 43.4235C16.7954 43.3998 16.8372 43.3756 16.873 43.3518C16.8968 43.3281 16.9207 43.292 16.9446 43.2445C16.9684 43.1969 16.9804 43.1371 16.9804 43.0654C16.9684 42.9941 16.9446 42.9402 16.9088 42.9045C16.873 42.8566 16.8252 42.8269 16.7656 42.815ZM16.1749 42.5464C16.2823 42.5286 16.336 42.5286 16.4434 42.5107C16.5031 42.5107 16.5508 42.5107 16.5866 42.5107C16.6224 42.5226 16.6462 42.5583 16.6582 42.6181C16.6582 42.6657 16.6462 42.7017 16.6224 42.7255C16.5866 42.7492 16.5448 42.7611 16.4971 42.7611C16.3897 42.779 16.3181 42.779 16.2107 42.7972C16.1928 42.7076 16.1928 42.6538 16.1749 42.5464ZM16.6582 43.2266C16.6343 43.2385 16.5985 43.2504 16.5508 43.2623C16.4434 43.2623 16.3897 43.2801 16.2644 43.2983C16.2644 43.1728 16.2465 43.1014 16.2286 42.9941C16.3539 42.9759 16.4076 42.958 16.515 42.958C16.5747 42.9462 16.6164 42.9462 16.6403 42.958C16.688 42.9699 16.7178 43.006 16.7298 43.0654C16.7298 43.1371 16.7059 43.1906 16.6582 43.2266Z" fill="#231F20"/>
<path fill-rule="evenodd" clip-rule="evenodd" d="M17.4636 42.2244C17.3204 42.6895 17.2488 42.9225 17.1235 43.4058C17.2309 43.3876 17.2846 43.3876 17.3741 43.3698C17.4099 43.2802 17.4099 43.2267 17.4457 43.1372C17.6068 43.1194 17.6963 43.1194 17.8753 43.1015C17.9111 43.1907 17.929 43.2446 17.9648 43.3341C18.0543 43.3341 18.108 43.3341 18.2154 43.3163C18.0364 42.8686 17.9469 42.6538 17.75 42.2065C17.6247 42.2065 17.571 42.2065 17.4636 42.2244ZM17.4994 42.9403C17.5352 42.7434 17.571 42.6538 17.6247 42.4748C17.6963 42.6538 17.7321 42.7434 17.7858 42.9046C17.6784 42.9225 17.6068 42.9225 17.4994 42.9403Z" fill="#231F20"/>
<path fill-rule="evenodd" clip-rule="evenodd" d="M19.0746 42.1526C19.0746 42.4747 19.0746 42.6359 19.0746 42.958C18.8777 42.6359 18.7882 42.4747 18.5913 42.1704C18.4839 42.1704 18.4302 42.1704 18.3228 42.1704C18.3407 42.6359 18.3407 42.8685 18.3586 43.3162C18.4481 43.3162 18.5018 43.3162 18.5913 43.3162C18.5734 42.9941 18.5734 42.8328 18.5734 42.4925C18.7703 42.815 18.8598 42.9759 19.0567 43.2983C19.1462 43.2983 19.1999 43.2983 19.2894 43.2983C19.2894 42.8507 19.2894 42.6181 19.3073 42.1526C19.1999 42.1526 19.1641 42.1526 19.0746 42.1526Z" fill="#231F20"/>
<path fill-rule="evenodd" clip-rule="evenodd" d="M20.256 42.1882C20.059 42.3673 19.9695 42.4569 19.7727 42.6359C19.7727 42.4569 19.7906 42.3495 19.7906 42.1704C19.6832 42.1704 19.6474 42.1704 19.54 42.1704C19.54 42.6181 19.5221 42.8507 19.5221 43.3162C19.6116 43.3162 19.6653 43.3162 19.7548 43.3162C19.7548 43.1549 19.7727 43.0832 19.7727 42.9224C19.8085 42.8863 19.8443 42.8685 19.898 42.815C20.0233 43.0297 20.0949 43.1193 20.2201 43.334C20.3455 43.334 20.417 43.3518 20.5424 43.3518C20.3455 43.0654 20.256 42.9224 20.059 42.6538C20.2739 42.4747 20.3634 42.3852 20.5781 42.2065C20.4529 42.1882 20.3813 42.1882 20.256 42.1882Z" fill="#231F20"/>
<path fill-rule="evenodd" clip-rule="evenodd" d="M21.7416 42.278C21.5805 42.2601 21.4373 42.2962 21.3478 42.3675C21.2225 42.457 21.133 42.6183 21.1151 42.8152C21.0972 43.0299 21.1509 43.1908 21.2583 43.3163C21.3299 43.3999 21.4492 43.4534 21.6163 43.4772C21.7833 43.5014 21.9146 43.4713 22.0101 43.3877C22.1353 43.2985 22.2069 43.1551 22.2428 42.9582C22.2785 42.7435 22.2248 42.5822 22.1174 42.457C22.0458 42.3675 21.9206 42.2962 21.7416 42.278ZM21.8848 43.209C21.8132 43.2684 21.7297 43.2922 21.6342 43.2803C21.5387 43.2684 21.4671 43.2268 21.4194 43.1551C21.3717 43.0715 21.3538 42.9701 21.3657 42.8508C21.3776 42.7197 21.4134 42.6183 21.4731 42.5466C21.5447 42.4867 21.6282 42.463 21.7237 42.4749C21.8191 42.4867 21.8967 42.5347 21.9564 42.6183C22.0041 42.6896 22.016 42.791 21.9922 42.9225C21.9802 43.0418 21.9444 43.1373 21.8848 43.209Z" fill="#231F20"/>
<path fill-rule="evenodd" clip-rule="evenodd" d="M22.3502 43.5489C22.4397 43.5668 22.4933 43.5668 22.5828 43.5846C22.6187 43.3877 22.6365 43.2985 22.6544 43.1016C22.8692 43.1373 22.9587 43.1551 23.1735 43.1908C23.1914 43.1195 23.1914 43.0834 23.2093 42.9943C22.9945 42.9582 22.8871 42.9404 22.6902 42.9047C22.7082 42.8152 22.7082 42.7613 22.726 42.654C22.9587 42.6896 23.084 42.7078 23.3167 42.7613C23.3346 42.6718 23.3525 42.6361 23.3525 42.5644C23.0124 42.4927 22.8513 42.4571 22.5112 42.4214C22.4397 42.8687 22.4218 43.0834 22.3502 43.5489Z" fill="#231F20"/>
<path fill-rule="evenodd" clip-rule="evenodd" d="M24.7129 42.8507C24.6234 43.155 24.5875 43.3162 24.5159 43.6205C24.4085 43.2623 24.3549 43.1015 24.2295 42.7433C24.14 42.7077 24.0864 42.7077 23.979 42.6716C23.8895 43.1371 23.8358 43.3519 23.7463 43.7996C23.8358 43.8174 23.8716 43.8352 23.9611 43.8531C24.0327 43.531 24.0685 43.3697 24.14 43.0476C24.2654 43.4236 24.319 43.6027 24.4264 43.9604C24.5159 43.9783 24.5696 43.9965 24.6591 44.0143C24.7665 43.5844 24.8202 43.3519 24.9276 42.9046C24.8381 42.8864 24.8023 42.8685 24.7129 42.8507Z" fill="#231F20"/>
<path fill-rule="evenodd" clip-rule="evenodd" d="M25.1424 42.958C25.035 43.4057 24.9813 43.6383 24.856 44.0677C24.9455 44.1038 24.9992 44.1216 25.0887 44.1394C25.214 43.6918 25.2677 43.477 25.393 43.0297C25.2856 43.0119 25.2498 42.9937 25.1424 42.958Z" fill="#231F20"/>
<path fill-rule="evenodd" clip-rule="evenodd" d="M25.948 43.9605C26.0553 43.9966 26.1091 44.0144 26.2164 44.0501C26.1806 44.1099 26.1329 44.1574 26.0732 44.1931C26.0016 44.2173 25.9301 44.2173 25.8585 44.1931C25.7749 44.1693 25.7093 44.1158 25.6616 44.0322C25.6138 43.9605 25.6079 43.8591 25.6437 43.728C25.6914 43.5846 25.7511 43.4891 25.8227 43.4415C25.9062 43.3936 25.9957 43.3877 26.0911 43.4237C26.1389 43.4356 26.1806 43.4594 26.2164 43.495C26.2761 43.543 26.3 43.6087 26.2881 43.6919C26.3954 43.728 26.4312 43.728 26.5386 43.7636C26.5506 43.6563 26.5267 43.5548 26.467 43.4594C26.3954 43.352 26.288 43.2744 26.1448 43.2268C25.9658 43.1789 25.8107 43.1908 25.6795 43.2625C25.5482 43.3342 25.4587 43.4594 25.411 43.6384C25.3632 43.8175 25.3752 43.9724 25.4468 44.1039C25.5064 44.2351 25.6079 44.3246 25.7511 44.3722C25.8465 44.396 25.9301 44.4023 26.0016 44.39C26.0494 44.3781 26.1031 44.3544 26.1627 44.3187C26.1448 44.3722 26.1448 44.4082 26.1448 44.4617C26.1986 44.4796 26.2343 44.4978 26.2881 44.5156C26.3596 44.2826 26.3954 44.1753 26.4849 43.9427C26.288 43.871 26.1986 43.8353 26.0016 43.7815C25.9837 43.8532 25.9658 43.8888 25.948 43.9605Z" fill="#231F20"/>
<path fill-rule="evenodd" clip-rule="evenodd" d="M27.0576 43.7996C27.2904 43.8888 27.4156 43.9248 27.6483 44.0322C27.6841 43.9427 27.702 43.907 27.7199 43.8353C27.3977 43.7101 27.2187 43.6384 26.8786 43.5132C26.7355 43.9427 26.6639 44.1574 26.5207 44.6051C26.8429 44.7124 27.0219 44.7838 27.344 44.9093C27.3799 44.8376 27.3977 44.802 27.4156 44.7303C27.183 44.6229 27.0576 44.569 26.8071 44.4795C26.8429 44.3721 26.8608 44.3186 26.8966 44.2113C27.1293 44.2826 27.2366 44.3365 27.4515 44.426C27.4694 44.3365 27.4872 44.3008 27.523 44.2291C27.3082 44.1396 27.183 44.1039 26.9681 44.0144C27.004 43.9248 27.0219 43.8888 27.0576 43.7996Z" fill="#231F20"/>
<path fill-rule="evenodd" clip-rule="evenodd" d="M28.6149 44.7481C28.6626 44.7124 28.6984 44.6704 28.7223 44.6229C28.7342 44.5868 28.7402 44.5452 28.7402 44.4977C28.7402 44.4616 28.7342 44.426 28.7223 44.3899C28.7103 44.3424 28.6865 44.3008 28.6507 44.2647C28.6149 44.2291 28.5612 44.193 28.4896 44.1574C28.2748 44.0678 28.1674 44.0143 27.9347 43.9248C27.7736 44.3543 27.702 44.569 27.523 44.9989C27.6125 45.0345 27.6662 45.0524 27.7557 45.088C27.8094 44.9093 27.8452 44.8376 27.9168 44.6764C28.0063 44.7124 28.0421 44.7302 28.1316 44.7659C28.2032 44.7897 28.2449 44.8198 28.2569 44.8555C28.2688 44.8911 28.2629 44.945 28.239 45.0167C28.2211 45.0524 28.2032 45.0702 28.2032 45.1062C28.1913 45.1419 28.1793 45.1716 28.1674 45.1954C28.1674 45.2195 28.1614 45.2433 28.1495 45.2671C28.2569 45.3031 28.3106 45.3388 28.4001 45.3745C28.418 45.3745 28.418 45.3566 28.418 45.3566C28.406 45.3329 28.4001 45.3031 28.4001 45.2671C28.4001 45.2552 28.412 45.2255 28.4359 45.1776C28.4538 45.1419 28.4538 45.1241 28.4717 45.1062C28.5075 45.0345 28.5194 44.9747 28.5075 44.9272C28.5075 44.8792 28.4836 44.8376 28.4359 44.802C28.5075 44.802 28.5671 44.7837 28.6149 44.7481ZM28.3464 44.6407C28.3225 44.6407 28.2867 44.6288 28.239 44.605C28.1316 44.5512 28.0779 44.5333 27.9884 44.4977C28.0242 44.3721 28.06 44.3186 28.0958 44.2112C28.2032 44.2469 28.2569 44.2826 28.3643 44.3186C28.412 44.3424 28.4418 44.3662 28.4538 44.3899C28.4896 44.426 28.4955 44.4795 28.4717 44.5512C28.4478 44.611 28.406 44.6407 28.3464 44.6407Z" fill="#231F20"/>
<path fill-rule="evenodd" clip-rule="evenodd" d="M29.0445 44.426C28.8655 44.8377 28.776 45.0524 28.5791 45.464C28.6686 45.5001 28.7223 45.5357 28.8118 45.5714C28.9908 45.1598 29.0982 44.945 29.2772 44.5334C29.1877 44.4977 29.1519 44.4617 29.0445 44.426Z" fill="#231F20"/>
<path fill-rule="evenodd" clip-rule="evenodd" d="M28.9371 45.6431C29.0266 45.6788 29.0803 45.7148 29.1698 45.7505C29.2413 45.6788 29.2772 45.6431 29.3488 45.5892C29.4919 45.6609 29.5814 45.6966 29.7246 45.7862C29.7246 45.8935 29.7067 45.9296 29.6888 46.0369C29.7962 46.0904 29.832 46.1086 29.9394 46.1621C29.9931 45.6788 30.0289 45.4462 30.0826 44.945C29.9752 44.8912 29.9215 44.8555 29.8141 44.802C29.4562 45.1419 29.2772 45.3032 28.9371 45.6431ZM29.7604 45.5892C29.653 45.5179 29.5993 45.5001 29.4919 45.4462C29.6172 45.3032 29.6888 45.2315 29.832 45.1063C29.7962 45.3032 29.7962 45.3923 29.7604 45.5892Z" fill="#231F20"/>
<path fill-rule="evenodd" clip-rule="evenodd" d="M14.8862 25.7392C14.9398 25.2738 12.8635 23.5734 12.8635 23.5734L12.2371 23.2512C12.2371 23.2512 9.73117 25.0053 7.54747 23.6092C5.36373 22.231 5.31004 20.2262 5.88281 17.6846C6.47349 15.1429 9.0689 14.1942 9.19418 14.1047C10.1249 13.6035 11.1452 13.8362 12.434 14.6238C13.7227 15.3934 14.0807 16.6106 14.0628 17.1655C14.027 17.7203 14.206 18.5437 14.6177 18.7585C15.0114 18.9733 17.3384 19.4387 18.287 19.4924C19.2357 19.5639 18.8419 18.5795 18.7524 17.9888C18.6629 17.4161 16.6403 15.5724 15.3515 14.1047C14.0628 12.6548 12.5592 11.4735 9.67745 11.7599C6.7957 12.0284 5.31004 14.051 4.2003 15.5008C3.09054 16.9507 2.80415 20.083 3.78861 22.6068C4.79096 25.1127 7.33266 26.3478 8.65719 26.7415C9.99966 27.1533 13.1678 26.6879 14.0628 26.5984C14.9398 26.5089 14.8324 26.1867 14.8862 25.7392ZM12.4519 12.9233C14.0628 13.3529 16.694 17.5056 17.1951 17.7382C17.6784 17.9888 17.8932 18.2394 17.6784 18.3647C17.4636 18.49 16.3718 18.2036 15.8348 18.2036C15.2799 18.2036 14.9219 18.0246 14.8862 17.7382C14.8503 17.4697 15.0652 16.2705 14.385 15.4471C13.7227 14.6059 12.6487 12.9233 10.286 12.9233C9.71326 12.9233 9.08677 12.9233 9.08677 12.9233C9.08677 12.9233 10.465 12.3685 12.4519 12.9233ZM11.1452 25.9182C7.51165 25.9719 6.0439 24.5578 4.64778 22.6247C3.26953 20.6916 4.32559 18.0783 4.32559 17.9888C4.32559 17.9888 4.54038 19.2776 4.50458 19.6534C4.46878 20.0114 3.9497 20.3873 5.61435 23.0364C7.27897 25.6676 9.60586 24.9695 10.644 24.8979C11.6822 24.8442 11.4674 24.3788 11.7896 24.2536C12.0939 24.1283 12.9172 25.1485 12.9172 25.1485C12.9172 25.1485 14.7608 25.8466 11.1452 25.9182Z" fill="#D8B48D"/>
<path fill-rule="evenodd" clip-rule="evenodd" d="M33.8593 15.5008C32.7496 14.051 31.2461 12.0284 28.3822 11.7599C25.5004 11.4735 23.9969 12.6548 22.7081 14.1047C21.4194 15.5724 19.3968 17.4161 19.2894 17.9888C19.1999 18.5795 18.824 19.5639 19.7726 19.4924C20.7034 19.4387 23.0482 18.9733 23.442 18.7585C23.8358 18.5437 24.0327 17.7203 23.9969 17.1655C23.9611 16.6106 24.337 15.3934 25.6257 14.6238C26.9144 13.8362 27.9347 13.6035 28.8476 14.1047C28.9908 14.1942 31.5861 15.1429 32.1589 17.6846C32.7496 20.2262 32.6959 22.231 30.5122 23.6092C28.3285 25.0053 25.8047 23.2512 25.8047 23.2512L25.1961 23.5734C25.1961 23.5734 23.1019 25.2738 23.1735 25.7392C23.2272 26.1867 23.1019 26.5089 23.9969 26.5984C24.8918 26.6879 28.06 27.1533 29.3845 26.7415C30.727 26.3478 33.2508 25.1127 34.2532 22.6068C35.2555 20.083 34.9691 16.9507 33.8593 15.5008ZM27.7736 12.9233C25.4109 12.9233 24.337 14.6059 23.6568 15.4471C22.9766 16.2705 23.1914 17.4697 23.1735 17.7382C23.1377 18.0246 22.7618 18.2036 22.2248 18.2036C21.67 18.2036 20.5781 18.49 20.3633 18.3647C20.1485 18.2394 20.3633 17.9888 20.8645 17.7382C21.3478 17.5056 23.9969 13.3529 25.5899 12.9233C27.5946 12.3685 28.9729 12.9233 28.9729 12.9233C28.9729 12.9233 28.3464 12.9233 27.7736 12.9233ZM33.394 22.6247C32.0157 24.5578 30.548 25.9719 26.9145 25.9182C23.2988 25.8466 25.1245 25.1485 25.1245 25.1485C25.1245 25.1485 25.9658 24.1283 26.2701 24.2536C26.5744 24.3788 26.3596 24.8442 27.3977 24.8979C28.4538 24.9695 30.7807 25.6676 32.4453 23.0364C34.1099 20.3873 33.573 20.0114 33.5551 19.6534C33.5193 19.2776 33.7341 17.9888 33.7341 17.9888C33.7341 18.0783 34.7722 20.6916 33.394 22.6247Z" fill="#D8B48D"/>
<path fill-rule="evenodd" clip-rule="evenodd" d="M23.2093 26.5982C22.7618 26.294 22.0817 25.5959 21.7774 26.4551C21.491 27.3142 21.0435 29.5516 21.0793 29.9812C21.1151 30.4108 21.7416 30.894 22.207 31.073C22.6902 31.2699 24.9634 33.6326 22.3502 36.9619C22.2428 37.0872 21.1688 38.5549 18.824 38.1076C16.4792 37.6599 14.8146 36.8545 14.4387 34.3844C14.0628 31.9322 16.4613 30.375 16.4613 30.375L16.3897 29.6948C16.3897 29.6948 15.7274 27.2068 15.3157 27.0815C14.9041 26.9562 14.7072 26.7414 14.2955 27.4932C13.9017 28.2449 12.3624 30.8761 12.2192 32.2007C12.076 33.5431 12.2013 36.2459 13.9375 38.0894C15.6916 39.9332 18.4302 40.8639 20.0411 40.4344C21.6521 40.0049 23.8895 39.4499 25.1604 37.0156C26.4312 34.5634 25.9837 32.7914 25.2319 31.091C24.4802 29.4084 23.6747 26.9025 23.2093 26.5982ZM14.2239 37.32C13.0963 35.351 12.4519 33.5073 13.8122 30.3392C15.1726 27.1531 15.101 29.0504 15.101 29.0504C15.101 29.0504 15.6558 30.1602 15.4411 30.3929C15.2262 30.6076 14.922 30.2497 14.4924 31.1446C14.0628 32.0575 12.613 33.8474 14.2418 36.3175C15.8527 38.8057 16.3539 38.4653 16.6761 38.5905C16.9983 38.6983 18.0007 39.3782 18.0007 39.3782C17.929 39.3425 15.3516 39.2708 14.2239 37.32ZM25.1961 34.098C24.9277 36.0848 23.979 37.0872 23.979 37.0872C23.979 37.0872 24.2117 36.5323 24.4086 36.0311C25.2678 33.9369 24.2296 32.3439 23.7821 31.431C23.3346 30.5182 22.2428 30.2497 22.028 30.1244C21.7953 29.9991 21.7774 29.5874 21.9743 29.1041C22.1712 28.6208 22.3323 27.5648 22.5113 27.4216C22.7082 27.2784 22.8334 27.5648 22.8513 28.0839C22.8872 28.6208 25.4109 32.5229 25.1961 34.098Z" fill="#D8B48D"/>
<path d="M19.0187 0.910347C19.0187 1.00268 18.8138 1.07753 18.7214 1.07753C18.6291 1.07753 18.4985 1.00268 18.4985 0.910347C18.4985 0.818014 18.6291 0.743164 18.7214 0.743164C18.8138 0.743164 19.0187 0.818014 19.0187 0.910347Z" fill="#231F20"/>
</g>
<defs>
<clipPath id="clip0_1683_13083">
<rect width="36.1115" height="48" fill="white" transform="translate(0.888611)"/>
</clipPath>
</defs>
</svg>
