<svg width="217" height="152" viewBox="0 0 217 152" fill="none" xmlns="http://www.w3.org/2000/svg">
<path d="M199.994 62.7092V83.6835L76.4448 151.889L76.4998 130.915L199.994 62.7092Z" fill="#6DCB86"/>
<path d="M76.4504 130.954L76.3954 151.929L14.7309 118.087L14.786 97.113L76.4504 130.954Z" fill="#4FA867"/>
<path d="M199.935 62.7537L157.376 86.2909L120.212 106.794L76.4414 130.959L14.777 97.118L58.5477 72.9531L95.7115 52.4496L138.271 28.9124L199.935 62.7537Z" fill="#C9FACB"/>
<path d="M175.158 54.3928L153.96 42.6765C145.922 47.1224 132.873 47.1224 124.835 42.6765L39.7161 89.3848C47.7545 93.8308 47.6994 100.997 39.606 105.39L60.8031 117.106C68.8415 112.661 81.8901 112.661 89.9285 117.106L175.047 70.3981C167.064 65.9522 167.119 58.7864 175.158 54.3928Z" fill="#70CB7E"/>
<path d="M76.8786 101.255C73.5751 103.085 68.1795 103.085 64.876 101.255C61.5726 99.424 61.5726 96.4949 64.9311 94.6643C68.2345 92.8336 73.6302 92.8336 76.9336 94.6643C80.182 96.4949 80.182 99.424 76.8786 101.255Z" fill="#1A6438"/>
<path d="M144.742 64.8221C141.439 66.6528 136.043 66.6528 132.739 64.8221C129.436 62.9914 129.436 60.0623 132.795 58.2316C136.153 56.401 141.494 56.401 144.797 58.2316C148.045 60.0623 148.045 62.9914 144.742 64.8221Z" fill="#71B97D"/>
<path d="M157.359 86.3123V107.234L139.245 117.277L120.195 106.816L58.5303 72.9745L95.6941 52.4709L157.359 86.3123Z" fill="#E5FFDE"/>
<path d="M157.4 86.2678V107.19L139.286 117.232L120.236 127.746V106.771L157.4 86.2678Z" fill="#CCFFD1"/>
<path d="M164.184 74.157L172.64 78.8568C174.308 79.7858 175.343 81.7532 175.343 84.5402C175.343 90.1691 171.202 97.0001 166.024 99.8419L157.568 95.1421C162.746 92.3004 166.887 85.4693 166.887 79.8404C166.887 77.0534 165.852 75.086 164.184 74.157Z" fill="#22894B"/>
<mask id="mask0_1511_11827" style="mask-type:luminance" maskUnits="userSpaceOnUse" x="157" y="74" width="19" height="26">
<path d="M164.22 74.1211L172.676 78.8209C174.344 79.7499 175.38 81.7173 175.38 84.5043C175.38 90.1332 171.238 96.9642 166.061 99.806L157.604 95.1062C162.782 92.2645 166.923 85.4334 166.923 79.8046C166.923 77.0175 165.888 75.0501 164.22 74.1211Z" fill="white"/>
</mask>
<g mask="url(#mask0_1511_11827)">
<path d="M166.106 99.8209L157.65 95.1211C162.827 92.2794 166.969 85.4483 166.969 79.8194C166.969 77.0324 165.933 75.065 164.265 74.136L172.721 78.8358C174.389 79.7648 175.425 81.7322 175.425 84.5192C175.425 90.1481 171.225 96.9791 166.106 99.8209Z" fill="#22894B"/>
</g>
<path d="M159.414 100.441L150.957 95.7413C152.683 96.6703 154.984 96.561 157.573 95.1401L166.029 99.8399C163.498 101.261 161.139 101.425 159.414 100.441Z" fill="#22894B"/>
<mask id="mask1_1511_11827" style="mask-type:luminance" maskUnits="userSpaceOnUse" x="150" y="95" width="16" height="7">
<path d="M159.377 100.472L150.921 95.7723C152.647 96.7013 154.948 96.592 157.537 95.1711L165.993 99.8709C163.462 101.292 161.103 101.456 159.377 100.472Z" fill="white"/>
</mask>
<g mask="url(#mask1_1511_11827)">
<path d="M159.377 100.472L150.921 95.7723C152.647 96.7013 154.948 96.592 157.537 95.1711L165.993 99.8709C163.462 101.292 161.103 101.456 159.377 100.472Z" fill="#22894B"/>
</g>
<path d="M171.845 61.5751L180.302 66.2749C176.62 64.2529 171.558 64.5261 165.92 67.5864L157.464 62.8866C163.102 59.8809 168.164 59.5531 171.845 61.5751Z" fill="#22894B"/>
<mask id="mask2_1511_11827" style="mask-type:luminance" maskUnits="userSpaceOnUse" x="157" y="60" width="24" height="8">
<path d="M171.883 61.5338L180.339 66.2336C176.658 64.2116 171.596 64.4848 165.958 67.5452L157.502 62.8454C163.139 59.8397 168.202 59.5118 171.883 61.5338Z" fill="white"/>
</mask>
<g mask="url(#mask2_1511_11827)">
<path d="M166.024 67.5417L157.568 62.8419C163.206 59.7815 168.268 59.5083 171.95 61.5303L180.406 66.2301C176.724 64.2081 171.604 64.4813 166.024 67.5417Z" fill="#22894B"/>
</g>
<path d="M151.787 112.997L143.331 108.297C139.707 106.275 137.463 102.067 137.463 96.0009C137.406 83.8142 146.437 69.0044 157.597 62.8838L166.053 67.5836C154.893 73.7042 145.919 88.514 145.919 100.701C145.919 106.767 148.163 111.029 151.787 112.997Z" fill="#22894B"/>
<mask id="mask3_1511_11827" style="mask-type:luminance" maskUnits="userSpaceOnUse" x="137" y="62" width="30" height="51">
<path d="M151.799 112.978L143.343 108.278C139.719 106.256 137.476 102.048 137.476 95.9819C137.418 83.7952 146.449 68.9854 157.609 62.8647L166.065 67.5645C154.906 73.6852 145.932 88.495 145.932 100.682C145.932 106.748 148.175 111.01 151.799 112.978Z" fill="white"/>
</mask>
<g mask="url(#mask3_1511_11827)">
<path d="M151.819 112.957L143.362 108.257C139.738 106.235 137.495 102.027 137.495 95.9609C137.437 83.7742 146.469 68.9644 157.629 62.8438L166.085 67.5435C154.925 73.6642 145.951 88.474 145.951 100.661C145.951 106.727 148.195 110.989 151.819 112.957Z" fill="#22894B"/>
</g>
<path d="M165.993 67.5751C177.153 61.4545 186.184 66.3729 186.242 78.5049C186.299 90.6915 177.268 105.501 166.108 111.622C154.948 117.743 145.917 112.824 145.859 100.692C145.859 88.5056 154.833 73.6958 165.993 67.5751ZM166.108 99.8179C171.285 96.9761 175.427 90.145 175.427 84.5162C175.427 78.8874 171.228 76.5922 166.051 79.4339C160.873 82.2756 156.732 89.1067 156.732 94.7355C156.732 100.364 160.931 102.66 166.108 99.8179Z" fill="#B2E6C0"/>
<path d="M175.261 15.6584L123.834 132.989L108.762 141.241L160.189 23.9104L175.261 15.6584Z" fill="#B2E6C0"/>
<path d="M108.743 141.257L100.287 136.612L151.714 19.2266L160.17 23.9264L108.743 141.257Z" fill="#22894B"/>
<path d="M160.227 23.8717L151.771 19.1719L166.843 10.9199L175.299 15.6197L160.227 23.8717Z" fill="#22894B"/>
<path d="M117.731 49.1609L126.187 53.8607C127.856 54.7897 128.891 56.7571 128.891 59.5441C128.891 65.173 124.749 72.004 119.572 74.8458L111.116 70.146C116.293 67.3043 120.435 60.4732 120.435 54.8443C120.435 52.0573 119.399 50.0899 117.731 49.1609Z" fill="#22894B"/>
<mask id="mask4_1511_11827" style="mask-type:luminance" maskUnits="userSpaceOnUse" x="111" y="49" width="18" height="26">
<path d="M117.754 49.1284L126.21 53.8282C127.878 54.7572 128.914 56.7246 128.914 59.5117C128.914 65.1405 124.772 71.9716 119.595 74.8133L111.138 70.1135C116.316 67.2718 120.457 60.4407 120.457 54.8119C120.457 52.0248 119.422 50.0574 117.754 49.1284Z" fill="white"/>
</mask>
<g mask="url(#mask4_1511_11827)">
<path d="M119.611 74.8541L111.155 70.1543C116.332 67.3126 120.474 60.4815 120.474 54.8527C120.474 52.0656 119.439 50.0982 117.77 49.1692L126.226 53.869C127.895 54.798 128.93 56.7654 128.93 59.5524C128.93 65.1266 124.731 72.0123 119.611 74.8541Z" fill="#22894B"/>
</g>
<path d="M113.021 75.382L104.565 70.6822C106.291 71.6112 108.592 71.5019 111.181 70.0811L119.637 74.7808C117.106 76.2017 114.747 76.311 113.021 75.382Z" fill="#22894B"/>
<mask id="mask5_1511_11827" style="mask-type:luminance" maskUnits="userSpaceOnUse" x="104" y="70" width="16" height="7">
<path d="M112.994 75.402L104.538 70.7022C106.264 71.6312 108.565 71.5219 111.154 70.1011L119.61 74.8009C117.079 76.2217 114.72 76.331 112.994 75.402Z" fill="white"/>
</mask>
<g mask="url(#mask5_1511_11827)">
<path d="M112.973 75.423L104.517 70.7232C106.243 71.6522 108.544 71.5429 111.132 70.1221L119.589 74.8219C117.057 76.2427 114.699 76.352 112.973 75.423Z" fill="#22894B"/>
</g>
<path d="M125.372 36.5953L133.828 41.2951C130.147 39.2731 125.084 39.5463 119.447 42.6613L110.991 37.9615C116.628 34.8466 121.69 34.5733 125.372 36.5953Z" fill="#22894B"/>
<mask id="mask6_1511_11827" style="mask-type:luminance" maskUnits="userSpaceOnUse" x="110" y="35" width="24" height="8">
<path d="M125.379 36.5851L133.836 41.2848C130.154 39.2628 125.092 39.5361 119.454 42.6511L110.998 37.9513C116.636 34.8363 121.698 34.5631 125.379 36.5851Z" fill="white"/>
</mask>
<g mask="url(#mask6_1511_11827)">
<path d="M119.516 42.6004L111.06 37.9006C116.697 34.8403 121.76 34.5671 125.441 36.5344L133.897 41.2342C130.216 39.2669 125.154 39.5401 119.516 42.6004Z" fill="#22894B"/>
</g>
<path d="M105.353 87.9764L96.8964 83.2766C93.2724 81.2546 91.0289 77.0466 91.0289 70.9806C90.9714 58.794 100.003 43.9842 111.163 37.8635L119.619 42.5633C108.459 48.684 99.485 63.4938 99.485 75.6804C99.485 81.6918 101.728 85.9544 105.353 87.9764Z" fill="#22894B"/>
<mask id="mask7_1511_11827" style="mask-type:luminance" maskUnits="userSpaceOnUse" x="91" y="37" width="29" height="51">
<path d="M105.324 87.9974L96.8678 83.2976C93.2437 81.2756 91.0002 77.0676 91.0002 71.0016C90.9427 58.815 99.9741 44.0052 111.134 37.8845L119.59 42.5843C108.43 48.705 99.4564 63.5148 99.4564 75.7014C99.4564 81.7128 101.7 85.9754 105.324 87.9974Z" fill="white"/>
</mask>
<g mask="url(#mask7_1511_11827)">
<path d="M105.334 87.9871L96.8783 83.2873C93.2543 81.2653 91.0108 77.0574 91.0108 70.9914C90.9533 58.8047 99.9846 43.9949 111.144 37.8743L119.601 42.5741C108.441 48.6947 99.4669 63.5045 99.4669 75.6912C99.4669 81.7025 101.71 85.9651 105.334 87.9871Z" fill="#22894B"/>
</g>
<path d="M119.541 42.5842C130.701 36.4635 139.732 41.3819 139.789 53.5139C139.847 65.7006 130.816 80.5104 119.656 86.5764C108.496 92.6424 99.4646 87.7786 99.4071 75.6466C99.4071 63.5146 108.381 48.7048 119.541 42.5842ZM119.656 74.8269C124.833 71.9852 128.975 65.1541 128.975 59.5253C128.975 53.8964 124.775 51.6012 119.598 54.4429C114.421 57.2847 110.279 64.1157 110.279 69.7446C110.279 75.3734 114.479 77.614 119.656 74.8269Z" fill="#B2E6C0"/>
</svg>
