<svg width="217" height="156" viewBox="0 0 217 156" fill="none" xmlns="http://www.w3.org/2000/svg">
<path d="M134.723 41.2043V46.5101C87.39 36.3174 34.8209 56.2142 35.0303 86.6527V81.3469C34.9605 69.8975 42.5701 59.1463 56.5327 51.048C76.9181 39.1797 107.566 35.34 134.723 41.2043Z" fill="#977D5F" stroke="#834F1F" stroke-width="0.0639999" stroke-miterlimit="10"/>
<path d="M154.344 40.8546L154.274 46.1604L131.445 51.1869L131.515 45.8812L154.344 40.8546Z" fill="#977D5F" stroke="#834F1F" stroke-width="0.0639999" stroke-miterlimit="10"/>
<path d="M56.8155 111.646V116.882L46.9719 122.606L47.0417 117.3L56.8155 111.646Z" fill="#977D5F" stroke="#834F1F" stroke-width="0.0639999" stroke-miterlimit="10"/>
<path d="M46.9704 119.954V117.301C46.4817 117.021 45.993 116.742 45.5043 116.463C45.3647 116.393 45.1553 116.253 45.0156 116.184C44.7364 115.974 44.3873 115.835 44.1081 115.625C43.8986 115.485 43.6892 115.346 43.4798 115.206C43.2703 115.067 42.9911 114.927 42.7817 114.718C42.5722 114.578 42.293 114.438 42.0835 114.229C41.8741 114.089 41.7344 113.95 41.525 113.88C41.2457 113.67 40.9665 113.531 40.7571 113.321C40.6174 113.251 40.5476 113.182 40.408 113.112C36.2192 110.11 32.6587 106.829 29.7964 103.408C24.0718 96.5661 21 89.0962 21 81.2771V86.5829C21.0698 98.3115 27.9115 109.412 40.4778 118.418C40.5476 118.487 40.6872 118.557 40.7571 118.627C41.0363 118.837 41.3156 118.976 41.5948 119.186C41.7344 119.325 41.9439 119.395 42.1533 119.535C42.3628 119.674 42.642 119.884 42.8514 120.023C43.0609 120.163 43.2703 120.303 43.5496 120.442C43.759 120.582 43.9685 120.721 44.1779 120.861C44.4572 121.001 44.7364 121.21 45.0156 121.42C45.1553 121.559 45.3647 121.629 45.5742 121.769C46.0629 122.048 46.4817 122.327 46.9704 122.606C46.9704 122.606 46.9704 122.606 47.0402 122.606L46.9704 119.954Z" fill="#977D5F" stroke="#834F1F" stroke-width="0.0639999" stroke-miterlimit="10"/>
<path d="M143.378 28.2185L154.339 40.8547L131.51 45.8812L134.722 41.1339C87.3883 30.9412 34.8192 50.838 35.0286 81.2765C35.0984 92.7258 42.8476 103.477 56.8801 111.575L47.0364 117.3C30.3511 107.666 21.1358 94.89 21.066 81.2765C20.9962 67.6629 30.0719 54.8871 46.6874 45.2529C70.9125 31.1506 107.494 26.543 139.818 33.5941L143.378 28.2185Z" fill="#ECDDC6" stroke="#834F1F" stroke-width="0.0639999" stroke-miterlimit="10"/>
<path d="M171.034 128.957C171.034 128.957 170.266 132.238 166.985 136.497C163.634 140.755 157.77 145.991 147.507 149.901C139.967 152.763 130.124 154.927 117.138 155.626C68.6883 157.929 55.354 129.865 55.354 129.865C55.354 129.865 43.6254 113.808 56.8201 88.8144C70.0147 63.8213 81.8131 48.7417 91.4473 40.5735C95.0077 37.5716 102.478 37.2923 110.367 38.1999C123.84 39.666 133.754 37.1527 133.754 37.1527C133.754 37.1527 182.204 90.0012 171.034 128.957Z" fill="#FFCA84" stroke="#4E3515" stroke-width="0.0793599" stroke-miterlimit="10"/>
<path d="M55.354 129.795C55.354 129.795 68.6883 157.86 117.069 155.556C130.054 154.928 139.898 152.694 147.437 149.831C146.6 149.901 69.8053 158.558 73.994 120.859C77.9734 85.1147 107.016 42.8778 110.367 38.2003C102.408 37.3626 95.0077 37.572 91.4473 40.5739C81.8131 48.7421 70.0845 63.8217 56.8201 88.8148C43.6254 113.738 55.354 129.795 55.354 129.795Z" fill="#9F6900" stroke="#4E3515" stroke-width="0.0793599" stroke-miterlimit="10"/>
<path d="M133.758 37.1525V43.296C133.758 46.9263 131.384 50.5566 126.567 53.3491C116.933 58.9342 101.225 58.9342 91.521 53.3491C86.6341 50.5566 84.1906 46.8565 84.1906 43.1564V37.0128C84.1906 40.7129 86.6341 44.413 91.521 47.2055C101.225 52.7906 116.933 52.7906 126.567 47.2055C131.384 44.413 133.758 40.7827 133.758 37.1525Z" fill="#97875F" stroke="#4E3515" stroke-width="0.0793599" stroke-miterlimit="10"/>
<path d="M133.793 37.1263C133.816 29.1836 122.738 22.7138 109.05 22.6755C95.3623 22.6373 84.2483 29.0452 84.2261 36.9879C84.204 44.9306 95.282 51.4004 108.97 51.4386C122.657 51.4768 133.771 45.069 133.793 37.1263Z" fill="#FFF7EB" stroke="#4E3515" stroke-width="0.0793599" stroke-miterlimit="10"/>
<path d="M142.901 21.7245L142.761 21.8641C142.831 21.7943 142.901 21.7245 142.901 21.7245Z" fill="#F0A54D" stroke="#4E3515" stroke-width="0.0793599" stroke-miterlimit="10"/>
<path d="M134.591 7.7616C123.002 4.27094 120.489 0.919922 107.015 0.919922C93.5411 0.919922 86.2805 4.96911 82.1616 7.27294C78.1124 9.50696 70.7122 13.2769 71.1311 19.1412C71.55 24.5866 80.9747 25.5639 80.9747 25.5639C80.9747 25.5639 88.8636 25.913 92.9127 29.7527C96.8222 33.4528 100.802 35.268 105.479 33.383C105.479 33.383 116.859 27.1697 124.887 28.147C132.846 29.1244 137.453 26.681 139.059 25.5639C140.735 24.4469 145.133 19.3506 145.203 17.8147C145.342 16.2788 145.761 11.1126 134.591 7.7616ZM140.595 18.1638C140.246 19.211 137.104 23.1205 135.918 23.9583C132.706 26.1923 128.238 26.4017 124.329 25.9828C119.721 25.2149 113.019 27.3791 108.691 29.2641C104.921 30.8698 104.292 31.7075 102.128 31.7075C99.9639 31.7075 97.8694 30.5207 95.3562 28.147C91.1674 24.0979 83.6276 23.5394 82.6502 23.4695C81.4634 23.3299 78.1822 22.7016 76.5765 21.2356C76.018 20.7469 75.8085 20.1884 75.7387 19.4902C75.5293 15.3713 81.1842 12.3693 84.6748 10.4843C93.8901 5.45778 99.2657 4.68985 108.76 4.68985C119.232 4.9691 121.746 7.83145 131.729 10.7636C140.595 13.2071 140.595 16.8373 140.595 18.1638Z" fill="#F4D8A2" stroke="#4E3515" stroke-width="0.0793599" stroke-miterlimit="10"/>
<path d="M141.297 23.5401C141.716 23.1212 142.135 22.5627 142.554 22.074C142.274 22.3532 141.855 22.8419 141.297 23.5401Z" fill="#F5C071" stroke="#4E3515" stroke-width="0.0793599" stroke-miterlimit="10"/>
<path d="M85.3728 9.9962C81.6727 12.0208 75.5989 15.0926 75.8084 19.3512C75.8782 20.0493 76.0877 20.6078 76.6462 21.0965C78.1821 22.5626 81.4633 23.1909 82.6501 23.3305C83.6275 23.4003 91.1672 23.9588 95.356 28.008C98.1485 30.8005 101.081 32.476 104.711 31.01C105.13 30.8005 106.596 29.9627 108.69 29.0552L108.83 4.48099C98.358 4.27155 91.9352 6.43573 85.3728 9.9962Z" fill="#946937" stroke="#4E3515" stroke-width="0.0793599" stroke-miterlimit="10"/>
<path d="M131.729 10.6239C121.606 7.69177 119.023 4.82942 108.76 4.55017L108.62 29.1244C113.228 27.1696 119.302 25.2149 124.258 25.8432C128.098 26.3319 132.706 26.0526 135.847 23.8186C137.034 22.9808 140.176 19.1411 140.525 18.0241C140.595 16.9071 140.595 13.207 131.729 10.6239Z" fill="#CFA471" stroke="#4E3515" stroke-width="0.0793599" stroke-miterlimit="10"/>
<path d="M106.457 31.9164L103.106 34.9882C101.709 36.2448 99.6848 36.8731 97.3111 36.6637C88.6543 35.8259 79.0899 26.2616 77.1352 17.2557C76.437 14.0443 76.5767 10.4838 79.0202 8.3196L82.3711 5.2478C79.9277 7.41201 79.7881 10.9725 80.4862 14.1839C82.441 23.1898 92.0054 32.824 100.662 33.5919C103.036 33.8014 104.991 33.1731 106.457 31.9164Z" fill="#C6A463" stroke="#4E3515" stroke-width="0.0793599" stroke-miterlimit="10"/>
<path d="M108.693 26.1217C108.693 31.0086 105.481 34.0106 100.594 33.5219C91.9373 32.6841 82.373 23.1197 80.4183 14.1138C78.8824 6.92307 82.5825 3.01353 88.0977 3.50222C97.8017 4.40979 108.623 16.4177 108.693 26.1217Z" fill="#FFF7EB" stroke="#4E3515" stroke-width="0.0793599" stroke-miterlimit="10"/>
<path d="M98.4966 30.1712C92.004 29.124 85.0227 21.9333 83.5567 15.1614C82.3 9.43671 85.5114 6.2253 90.2587 6.99324C97.3796 8.18006 104.989 16.5576 105.478 23.7484C105.827 28.1466 102.965 30.8693 98.4966 30.1712Z" fill="#E0CA9F" stroke="#4E3515" stroke-width="0.0793599" stroke-miterlimit="10"/>
<path d="M104.291 27.3802L106.455 31.3595C107.362 33.035 109.038 34.2917 111.412 34.8502C119.859 36.9446 132.076 31.0104 136.823 23.1215C138.569 20.329 139.546 16.9082 138.01 14.0458L135.846 10.0665C137.382 12.9289 136.405 16.3497 134.659 19.1422C129.842 27.0311 117.625 32.9652 109.247 30.8708C106.874 30.3123 105.198 29.0557 104.291 27.3802Z" fill="#C6A463" stroke="#4E3515" stroke-width="0.0793599" stroke-miterlimit="10"/>
<path d="M104.012 21.236C102.406 25.9135 104.431 29.7532 109.178 30.8702C117.625 32.9646 129.842 27.0305 134.59 19.1416C138.429 12.8584 136.195 7.97149 130.75 6.57523C121.395 4.27139 107.223 12.0206 104.012 21.236Z" fill="#FFF7EB" stroke="#4E3515" stroke-width="0.0793599" stroke-miterlimit="10"/>
<path d="M112.39 28.3561C118.883 29.4732 127.889 25.0051 131.449 19.071C134.521 14.0445 132.566 9.9953 127.749 9.15754C120.628 7.9009 110.715 13.4161 107.853 19.9786C106.107 24.0277 107.922 27.5882 112.39 28.3561Z" fill="#E0CA9F" stroke="#4E3515" stroke-width="0.0793599" stroke-miterlimit="10"/>
<path d="M136.823 25.7042C137.242 25.425 142.129 21.7947 142.827 21.1664C139.057 25.4948 129.912 37.5725 128.586 42.4594C126.91 48.3935 102.196 47.9048 95.0054 45.2519C95.0054 45.2519 91.6544 44.484 89.0713 40.0159C86.4883 35.5479 77.273 25.7741 73.7125 22.7023C76.5748 25.0759 81.4618 25.5646 81.4618 25.5646C81.4618 25.5646 89.3506 25.9137 93.3998 29.7534C97.3093 33.4535 101.289 34.8498 105.966 32.9648C105.966 32.9648 116.857 26.6118 124.885 27.5892C132.844 28.5666 135.218 26.8212 136.823 25.7042Z" fill="#CFA471" stroke="#4E3515" stroke-width="0.0793599" stroke-miterlimit="10"/>
<path d="M140.663 17.9535C140.663 18.0233 140.663 18.0931 140.663 18.1629C140.314 19.2101 137.172 23.1196 135.986 23.9574C132.774 26.1914 128.306 26.4009 124.397 25.982C119.789 25.2141 113.087 27.3783 108.759 29.2632C104.989 30.8689 104.36 31.7067 102.196 31.7067C100.032 31.7067 97.9376 30.5198 95.4244 28.1462C91.2356 24.097 83.6957 23.5385 82.7183 23.4687C81.5315 23.3291 78.2504 22.7008 76.6447 21.2347C75.9465 20.6064 75.5276 19.6988 76.0163 18.0931H71.1992C71.1294 18.4422 71.1294 18.861 71.1992 19.2799C71.6181 24.7253 81.0428 25.7027 81.0428 25.7027C81.0428 25.7027 88.9318 26.0518 92.9809 29.8915C96.8904 33.5916 100.87 35.4068 105.547 33.5218C105.547 33.5218 116.927 27.3084 124.955 28.2858C132.914 29.2632 137.522 26.8197 139.127 25.7027C140.733 24.5857 145.061 19.6988 145.271 18.0233L140.663 17.9535Z" fill="#F4D8A2" stroke="#4E3515" stroke-width="0.0793599" stroke-miterlimit="10"/>
<path d="M183.037 81.3432V86.649C182.968 75.1997 175.218 64.4485 161.186 56.3501V51.0443C175.218 59.1426 182.968 69.8939 183.037 81.3432Z" fill="#97875F" stroke="#83551F" stroke-width="0.0639999" stroke-miterlimit="10"/>
<path d="M86.7626 115.623V124.14L83.0625 129.934V121.417L86.7626 115.623Z" fill="#97875F" stroke="#83551F" stroke-width="0.0639999" stroke-miterlimit="10"/>
<path d="M196.999 81.3448C197.069 94.9584 187.993 107.734 171.447 117.368C171.028 117.648 170.54 117.857 170.121 118.067C169.842 118.206 169.562 118.346 169.353 118.485C169.213 118.555 169.074 118.625 168.864 118.695C168.236 119.044 167.608 119.323 166.979 119.672C166.7 119.812 166.351 120.021 166.072 120.161C165.792 120.301 165.443 120.44 165.164 120.58C152.039 126.863 136.122 130.633 119.576 131.82C105.614 132.727 91.4415 131.75 78.2469 128.888V134.193C106.8 140.407 140.38 137.824 165.443 125.746C165.653 125.676 165.862 125.537 166.002 125.467C166.351 125.327 166.7 125.118 166.979 124.978C167.608 124.629 168.236 124.35 168.794 124.001C168.934 123.931 169.074 123.861 169.283 123.721C169.981 123.303 170.679 122.953 171.377 122.535C177.102 119.253 181.919 115.553 185.759 111.574L185.829 111.504C186.666 110.666 187.434 109.759 188.202 108.851C189.599 107.176 190.855 105.43 191.972 103.685C192.461 102.917 192.88 102.149 193.299 101.311C195.742 96.5641 196.999 91.5376 196.999 86.4412V83.16V81.3448Z" fill="#97875F" stroke="#83551F" stroke-width="0.0639999" stroke-miterlimit="10"/>
<path d="M75.3841 133.424L75.3143 138.73L64.0046 126.093L64.0744 120.857L75.3841 133.424Z" fill="#97875F" stroke="#83551F" stroke-width="0.0639999" stroke-miterlimit="10"/>
<path d="M78.1748 128.957V134.262L75.3125 138.73L75.3823 133.425L78.1748 128.957Z" fill="#97875F" stroke="#83551F" stroke-width="0.0639999" stroke-miterlimit="10"/>
<path d="M171.03 45.3207C187.715 54.9549 196.931 67.7307 197 81.3442C197.07 94.9578 187.994 107.734 171.449 117.368C145.897 132.238 109.106 135.729 78.1787 129.027L75.3862 133.495L64.0765 120.858L86.7657 115.622L83.0656 121.417C110.223 127.351 141.01 123.511 161.535 111.643C190.159 94.9578 190.368 67.8703 161.186 51.0453L171.03 45.3207Z" fill="#ECDDC6" stroke="#83551F" stroke-width="0.0639999" stroke-miterlimit="10"/>
</svg>
