<svg width="182" height="157" viewBox="0 0 182 157" fill="none" xmlns="http://www.w3.org/2000/svg">
<path d="M129.601 151.036C129.173 152.006 129.614 153.139 130.584 153.567C131.554 153.994 132.688 153.554 133.115 152.584L129.601 151.036ZM73.1269 75.9784L71.5032 77.0032L71.5035 77.0037L73.1269 75.9784ZM127.285 62.4945L125.388 62.196L125.388 62.1963L127.285 62.4945ZM29.3331 26.8879C28.418 27.4237 28.1106 28.5999 28.6465 29.5149C29.1823 30.43 30.3585 30.7374 31.2735 30.2015L29.3331 26.8879ZM143.608 149.186C144.569 148.737 144.984 147.594 144.536 146.634C144.087 145.673 142.945 145.257 141.984 145.706L143.608 149.186ZM130.939 152.981L129.317 154.008C129.833 154.824 130.876 155.129 131.751 154.72L130.939 152.981ZM125.185 140.824C124.528 139.992 123.32 139.85 122.488 140.507C121.656 141.164 121.514 142.372 122.171 143.204L125.185 140.824ZM131.358 151.81C133.115 152.584 133.115 152.583 133.116 152.582C133.116 152.581 133.117 152.58 133.117 152.579C133.118 152.577 133.12 152.573 133.122 152.569C133.125 152.561 133.13 152.549 133.137 152.534C133.15 152.504 133.169 152.46 133.193 152.403C133.242 152.29 133.312 152.123 133.403 151.907C133.583 151.474 133.841 150.841 134.157 150.028C134.79 148.402 135.658 146.056 136.604 143.156C138.494 137.361 140.707 129.328 141.983 120.398C144.518 102.654 143.429 80.7615 127.911 66.1947L125.283 68.9944C139.378 82.2259 140.67 102.441 138.182 119.855C136.946 128.504 134.797 136.312 132.953 141.965C132.032 144.788 131.189 147.067 130.579 148.635C130.274 149.419 130.027 150.024 129.857 150.432C129.773 150.635 129.707 150.789 129.664 150.891C129.642 150.941 129.626 150.979 129.615 151.003C129.61 151.015 129.606 151.024 129.604 151.03C129.602 151.032 129.602 151.034 129.601 151.035C129.601 151.036 129.601 151.036 129.601 151.036C129.601 151.036 129.601 151.036 131.358 151.81ZM127.911 66.1947C112.624 51.8455 96.2181 50.0799 84.6762 54.0791C78.9488 56.0636 74.3528 59.4993 71.804 63.5918C69.2213 67.7389 68.7393 72.6243 71.5032 77.0032L74.7505 74.9536C72.912 72.0408 73.1108 68.7574 75.0636 65.6218C77.0503 62.4317 80.8445 59.4707 85.9334 57.7074C96.0241 54.2111 110.955 55.5453 125.283 68.9944L127.911 66.1947ZM71.5035 77.0037C74.1207 81.1476 78.8098 84.1913 84.2037 86.0118C89.6284 87.8427 95.9656 88.5088 102.15 87.7304C114.544 86.1705 126.681 78.7006 129.182 62.7926L125.388 62.1963C123.227 75.9473 112.888 82.5086 101.67 83.9205C96.0491 84.628 90.2963 84.0153 85.4317 82.3735C80.5364 80.7212 76.7367 78.0985 74.7502 74.9532L71.5035 77.0037ZM129.182 62.7929C130.463 54.6503 127.241 46.7617 121.342 40.0213C115.444 33.2826 106.762 27.5466 96.7106 23.5624C76.6336 15.6045 50.5784 14.4466 29.3331 26.8879L31.2735 30.2015C51.2535 18.5012 76.0218 19.4926 95.2957 27.1322C104.919 30.9466 113.045 36.3714 118.452 42.5502C123.858 48.7273 126.44 55.513 125.388 62.196L129.182 62.7929ZM141.984 145.706L130.127 151.241L131.751 154.72L143.608 149.186L141.984 145.706ZM130.939 152.981C132.561 151.953 132.561 151.953 132.561 151.953C132.561 151.953 132.561 151.953 132.56 151.953C132.56 151.953 132.56 151.952 132.56 151.952C132.559 151.951 132.558 151.949 132.556 151.947C132.554 151.942 132.55 151.936 132.544 151.927C132.533 151.91 132.517 151.884 132.496 151.851C132.454 151.785 132.392 151.687 132.312 151.562C132.154 151.313 131.925 150.954 131.646 150.517C131.089 149.645 130.328 148.459 129.517 147.209C127.924 144.755 126.051 141.921 125.185 140.824L122.171 143.204C122.9 144.126 124.657 146.776 126.296 149.3C127.101 150.54 127.856 151.717 128.411 152.585C128.688 153.019 128.914 153.375 129.072 153.622C129.151 153.746 129.212 153.843 129.253 153.908C129.274 153.941 129.29 153.966 129.301 153.983C129.306 153.991 129.31 153.998 129.313 154.002C129.314 154.004 129.315 154.005 129.316 154.006C129.316 154.007 129.316 154.007 129.316 154.008C129.316 154.008 129.317 154.008 129.317 154.008C129.317 154.008 129.317 154.008 130.939 152.981Z" fill="#3D688F"/>
</svg>
