<svg width="554" height="545" viewBox="0 0 554 545" fill="none" xmlns="http://www.w3.org/2000/svg">
<path d="M480.489 236.555L480.479 240.048L375.523 179.478L375.529 175.979L480.489 236.555Z" fill="#000107"/>
<path d="M375.529 175.979L375.524 179.478L271.244 240.048L271.255 236.555L375.529 175.979Z" fill="#000107"/>
<path d="M376.215 297.131L376.205 300.624L271.244 240.048L271.255 236.555L376.215 297.131Z" fill="#FFF7EB"/>
<path d="M480.489 236.555L376.214 297.131L271.254 236.555L375.528 175.979L480.489 236.555Z" fill="#FFF7EB"/>
<path d="M376.215 297.57L376.204 301.064L270.488 240.048L270.499 236.555L376.215 297.57Z" fill="#000107"/>
<path d="M375.53 175.545L481.246 236.555L376.216 297.571L270.5 236.561L375.53 175.545ZM376.216 297.131L480.491 236.555L375.53 175.979L271.256 236.555L376.216 297.131Z" fill="#000107"/>
<path d="M480.488 236.555L480.478 240.048L376.203 300.624L376.214 297.131L480.488 236.555Z" fill="#FFF7EB"/>
<path d="M481.244 236.555L481.239 240.048L376.203 301.064L376.214 297.57L481.244 236.555Z" fill="#000107"/>
<path d="M345.618 314.907L345.607 318.4L240.646 257.824L240.657 254.331L345.618 314.907Z" fill="#000107"/>
<path d="M240.657 254.331L240.646 257.824L136.377 318.395L136.382 314.902L240.657 254.331Z" fill="#000107"/>
<path d="M241.343 375.478L241.332 378.971L136.377 318.395L136.382 314.902L241.343 375.478Z" fill="#FFF7EB"/>
<path d="M240.657 253.892L346.373 314.902L241.343 375.917L135.627 314.908L240.657 253.892ZM241.343 375.478L345.618 314.908L240.657 254.331L136.383 314.902L241.343 375.478Z" fill="#000107"/>
<path d="M345.616 314.907L241.341 375.478L136.381 314.902L240.655 254.331L345.616 314.907Z" fill="#FFF7EB"/>
<path d="M241.347 375.917L241.337 379.41L135.615 318.395L135.626 314.902L241.347 375.917Z" fill="#000107"/>
<path d="M345.615 314.907L345.605 318.4L241.33 378.971L241.341 375.478L345.615 314.907Z" fill="#FFF7EB"/>
<path d="M346.379 314.902L346.368 318.395L241.338 379.41L241.349 375.917L346.379 314.902Z" fill="#000107"/>
<path d="M210.749 393.254L210.738 396.747L105.783 336.171L105.794 332.678L210.749 393.254Z" fill="#073042"/>
<path d="M105.793 332.678L105.782 336.171L1.50781 396.747L1.51854 393.249L105.793 332.678Z" fill="#073042"/>
<path d="M106.479 453.825L106.468 457.318L1.50781 396.747L1.51854 393.249L106.479 453.825Z" fill="#FFF7EB"/>
<path d="M105.788 332.239L211.504 393.249L106.474 454.259L0.757812 393.249L105.788 332.239ZM106.474 453.825L210.749 393.254L105.788 332.678L1.51352 393.249L106.474 453.825Z" fill="#073042"/>
<path d="M210.747 393.254L106.478 453.825L1.51758 393.249L105.792 332.678L210.747 393.254Z" fill="#FFF7EB"/>
<path d="M106.479 454.264L106.468 457.757L0.751953 396.747L0.76265 393.249L106.479 454.264Z" fill="#073042"/>
<path d="M210.747 393.254L210.736 396.747L106.467 457.318L106.477 453.825L210.747 393.254Z" fill="#FFF7EB"/>
<path d="M211.508 393.254L211.497 396.747L106.467 457.757L106.477 454.264L211.508 393.254Z" fill="#073042"/>
<path d="M371.944 121.313L443.745 79.8741L371.584 37.8882L299.783 79.3223L371.944 121.313Z" fill="#000830" fill-opacity="0.27"/>
<path d="M443.745 79.8741V237.762L371.943 279.201V121.314L443.745 79.8741Z" fill="#292B33" fill-opacity="0.88"/>
<path d="M299.783 237.215V79.3221L371.944 121.313V279.201L299.783 237.215Z" fill="#00051D" fill-opacity="0.45"/>
<path d="M286.283 206.512L358.079 165.072L285.924 123.086L214.123 164.52L286.283 206.512Z" fill="#FFC983"/>
<path d="M358.079 165.072V287.923L286.283 329.362V206.512L358.079 165.072Z" fill="#9E6900"/>
<path d="M214.123 287.371V164.521L286.283 206.512V329.362L214.123 287.371Z" fill="#F19800"/>
<path d="M198.425 299.688L270.226 258.249L198.065 216.263L126.27 257.702L198.425 299.688Z" fill="#000830" fill-opacity="0.27"/>
<path d="M270.225 258.249V338.851L198.424 380.285V299.688L270.225 258.249Z" fill="#292B33" fill-opacity="0.88"/>
<path d="M126.27 338.299V257.702L198.425 299.688V380.284L126.27 338.299Z" fill="#00051D" fill-opacity="0.45"/>
<path d="M110.315 382.508L182.111 341.069L109.95 299.083L38.1543 340.522L110.315 382.508Z" fill="#A2D7F4"/>
<path d="M182.11 341.069V391.155L110.314 432.594V382.508L182.11 341.069Z" fill="#1E4457"/>
<path d="M38.1543 390.608V340.522L110.315 382.508V432.594L38.1543 390.608Z" fill="#377794"/>
<path d="M377.432 1.24268L383.213 7.18085L370.442 100.63L364.662 94.692L377.432 1.24268Z" fill="#15A092" stroke="#093243" stroke-width="0.923378" stroke-linecap="round" stroke-linejoin="round"/>
<path d="M364.664 94.692L370.444 100.63L288.974 55.6923L283.203 49.754L364.664 94.692Z" fill="#15A092" stroke="#093243" stroke-width="0.923378" stroke-linecap="round" stroke-linejoin="round"/>
<path d="M377.434 1.24268L364.664 94.692L283.203 49.7541L377.434 1.24268Z" fill="#42D1CA" stroke="#093243" stroke-width="0.923378" stroke-linecap="round" stroke-linejoin="round"/>
<path d="M281.633 182.856L249.795 165.174L309.223 63.9952L341.062 81.6774L281.633 182.856Z" fill="#42D1CA" stroke="#093243" stroke-width="0.923378" stroke-linecap="round" stroke-linejoin="round"/>
<path d="M281.708 195.5L249.87 177.817L205.732 152.282L237.58 169.965L281.708 195.5Z" fill="#E22525" stroke="#093243" stroke-width="0.923378" stroke-linecap="round" stroke-linejoin="round"/>
<path d="M173.523 260.741L141.676 243.058L205.878 139.798L237.716 157.48L173.523 260.741Z" fill="#42D1CA" stroke="#093243" stroke-width="0.923378" stroke-linecap="round" stroke-linejoin="round"/>
<path d="M133.605 245.644L101.758 227.962L141.675 243.058L173.523 260.741L133.605 245.644Z" fill="#20B2A3" stroke="#093243" stroke-width="0.923378" stroke-linecap="round" stroke-linejoin="round"/>
<path d="M75.8381 338.149L44 320.467L101.757 227.962L133.605 245.644L75.8381 338.149Z" fill="#42D1CA" stroke="#093243" stroke-width="0.923378" stroke-linecap="round" stroke-linejoin="round"/>
<path d="M81.3783 341.475L49.531 323.793L44 320.467L75.8381 338.149L81.3783 341.475Z" fill="#E22525" stroke="#093243" stroke-width="0.923378" stroke-linecap="round" stroke-linejoin="round"/>
<path d="M341.06 81.6774L346.785 84.8362L281.705 195.5L237.577 169.965L173.882 272.405L133.964 257.308L81.3782 341.475L75.8379 338.149L133.604 245.644L173.522 260.741L237.715 157.48L281.631 182.856L341.06 81.6774Z" fill="#15A092" stroke="#093243" stroke-width="0.923378" stroke-linecap="round" stroke-linejoin="round"/>
<path d="M375.127 313.381L377.328 314.804C382.316 318.031 388.966 315.825 391.013 310.264L391.916 307.811C394.443 300.946 403.531 299.623 407.974 305.473L409.562 307.563C413.162 312.301 420.177 312.515 423.999 308.007L425.685 306.016C430.402 300.448 439.415 302.329 441.605 309.339L442.388 311.845C444.165 317.523 450.698 320.134 455.834 317.22L458.102 315.933C464.441 312.334 472.289 317.192 471.965 324.515L471.85 327.133C471.588 333.066 476.854 337.76 482.682 336.789L485.255 336.36C492.452 335.162 498.189 342.411 495.39 349.166L494.39 351.583C492.121 357.056 495.481 363.262 501.305 364.356L503.874 364.839C511.062 366.189 513.995 374.955 509.058 380.327L507.291 382.246C503.294 386.598 504.344 393.571 509.455 396.595L511.71 397.93C518.019 401.663 517.797 410.889 511.317 414.23L509 415.425C503.751 418.13 502.367 425.031 506.15 429.622L507.82 431.648C512.491 437.316 509.14 445.889 501.899 446.795L499.311 447.119C493.446 447.852 489.79 453.845 491.79 459.45L492.671 461.922C495.141 468.84 489.064 475.725 481.935 474.09L479.388 473.505C473.613 472.179 468.129 476.541 468.105 482.482L468.094 485.103C468.062 492.435 459.993 496.804 453.837 492.821L451.636 491.398C446.648 488.17 439.998 490.377 437.952 495.938L437.048 498.391C434.522 505.256 425.433 506.578 420.991 500.729L419.402 498.639C415.803 493.901 408.787 493.687 404.965 498.195L403.279 500.186C398.562 505.754 389.549 503.873 387.359 496.863L386.576 494.357C384.8 488.679 378.266 486.068 373.13 488.982L370.863 490.269C364.523 493.868 356.675 489.01 356.999 481.687L357.115 479.069C357.377 473.136 352.111 468.442 346.282 469.413L343.709 469.842C336.512 471.04 330.775 463.791 333.574 457.035L334.575 454.619C336.843 449.145 333.483 442.939 327.66 441.846L325.089 441.363C317.902 440.013 314.969 431.247 319.906 425.875L321.673 423.955C325.671 419.604 324.62 412.63 319.51 409.607L317.254 408.272C310.945 404.539 311.167 395.313 317.647 391.972L319.963 390.777C325.213 388.071 326.598 381.171 322.814 376.579L321.144 374.554C316.473 368.886 319.824 360.313 327.065 359.406L329.654 359.083C335.519 358.349 339.174 352.356 337.174 346.752L336.293 344.279C333.823 337.362 339.901 330.477 347.029 332.112L349.577 332.696C355.351 334.023 360.835 329.66 360.859 323.72L360.871 321.099C360.901 313.767 368.97 309.398 375.127 313.381Z" fill="#FFF9F2"/>
<path d="M457.567 395.592L432.792 454.024C428.596 463.919 414.921 464.551 409.594 455.095L366.429 378.423C361.107 368.965 368.733 357.587 379.369 359.127L442.15 368.211C454.942 370.061 462.611 383.688 457.569 395.596L457.567 395.592Z" fill="#FF4F59"/>
</svg>
